<?xml version="1.0" encoding="utf-8"?>
<!-- Generator: Adobe Illustrator 27.2.0, SVG Export Plug-In . SVG Version: 6.00 Build 0)  -->
<svg version="1.1" id="Layer_1" xmlns="http://www.w3.org/2000/svg" xmlns:xlink="http://www.w3.org/1999/xlink" x="0px" y="0px"
	 viewBox="0 0 116.11 116.08" style="enable-background:new 0 0 116.11 116.08;" xml:space="preserve">
<style type="text/css">
	.st0{fill:#1E201F;}
	.st1{fill:#F0B600;}
</style>
<g>
	<path class="st0" d="M106.41,81.85c-5.24-0.02-10.48-0.02-15.72-0.01l-9.86,0V71.31l11.07,0c6.48,0,12.96,0,19.44,0
		c3.16,0,4.76-1.58,4.76-4.69c0.01-13.84,0.02-27.68,0-41.52c0-3.07-1.57-4.63-4.65-4.63l-30.69,0V4.92c0-3.45-1.47-4.92-4.92-4.92
		H5.03c-3.6,0-5,1.39-5,4.96l0,19.08c0,19.08,0,38.16-0.02,57.24c0,1.34,0.38,2.27,1.32,3.2c10.41,10.35,20.59,20.53,30.24,30.25
		c0.96,0.96,1.91,1.36,3.3,1.36c0.01,0,0.02,0,0.02,0c10.25-0.03,20.5-0.03,30.75-0.03l10.35,0c0.29,0,0.58,0,0.87-0.02
		c2.24-0.15,3.84-1.8,3.88-4c0.04-1.73,0.03-3.46,0.02-5.19c0-0.92-0.01-1.84,0-2.75c0-0.32,0.02-0.65,0.05-1.01l0.12-1.9l8.49,0
		c5.33,0,10.65,0,15.98-0.01c1.06,0,2.06-0.01,2.98-0.2c5.02-1.06,8.16-5.43,7.64-10.64C115.54,85.59,111.32,81.87,106.41,81.85z
		 M111.58,25v41.74H52.96V25H111.58z M31.54,107.94L8.15,84.51h23.39V107.94z M76.26,111.53H36.11l0-26.37
		c0-3.78-1.42-5.19-5.25-5.19H4.56V4.54h71.69v15.93l-8.73,0c-4.84,0-9.69,0-14.53,0c-3,0-4.6,1.58-4.6,4.56
		c-0.01,13.89-0.01,27.77,0,41.66c0,3.02,1.63,4.62,4.7,4.63c4.65,0.01,9.3,0.01,13.95,0l9.2,0v10.53h-2.96
		c-1.16,0-2.33-0.01-3.49-0.01c-3.04-0.01-6.17-0.03-9.25,0.06c-0.79,0.02-1.75,0.36-2.4,0.84c-2.43,1.8-4.83,3.75-7.15,5.64
		l-1.52,1.23c-0.69,0.56-1.08,1.24-1.08,1.91c0,0.67,0.36,1.32,1.04,1.88l0.22,0.18c2.84,2.33,5.78,4.74,8.77,6.96
		c0.47,0.35,1.33,0.58,2.19,0.6c3.06,0.07,6.18,0.06,9.2,0.05c1.14,0,2.28-0.01,3.41-0.01h3.04V111.53z M106.03,96.72
		c-5.86,0-11.71,0.01-17.57,0.01c-8.75,0-17.5-0.01-26.25-0.03c-0.87,0-1.85-0.33-2.6-0.87c-0.96-0.69-1.85-1.42-2.8-2.2
		c-0.38-0.31-0.76-0.62-1.17-0.95l-1.46-1.17l2.67-2.14c1.04-0.85,2.03-1.64,3.07-2.41c0.78-0.58,1.76-0.67,2.28-0.67
		c14.61-0.02,29.21-0.02,43.82-0.01c1.68,0,3.17,0.57,4.19,1.61c0.94,0.95,1.45,2.27,1.43,3.71
		C111.59,94.61,109.29,96.72,106.03,96.72z"/>
	<path class="st0" d="M35.34,48.35c-5.92-0.02-11.92-0.02-17.84,0c-1.6,0.01-2.56,0.83-2.58,2.21c-0.01,0.63,0.18,1.14,0.54,1.52
		c0.45,0.46,1.18,0.71,2.11,0.71c2.05,0.01,4.1,0.01,6.15,0.01l2.62,0l2.67,0c2.08,0,4.17,0.01,6.25-0.01
		c0.87-0.01,1.58-0.23,2.04-0.65c0.41-0.38,0.62-0.91,0.61-1.58C37.91,49.18,36.95,48.36,35.34,48.35z"/>
	<path class="st0" d="M35.26,63.26c-2.03-0.01-4.06-0.01-6.08-0.01l-2.69,0c-0.83,0-1.66,0-2.48-0.01c-0.81,0-1.63-0.01-2.46-0.01
		c-1.31,0-2.64,0.01-3.94,0.05c-0.67,0.02-1.38,0.21-1.85,0.49c-0.82,0.48-0.99,1.56-0.74,2.38c0.3,0.97,1.16,1.53,2.37,1.54
		c6.1,0.03,12.14,0.03,17.97,0c1.6-0.01,2.56-0.83,2.57-2.21c0-0.68-0.2-1.21-0.62-1.58C36.85,63.49,36.14,63.27,35.26,63.26z"/>
	<g>
		<path class="st1" d="M27.66,15.92c-0.39-0.38-0.8-0.58-1.22-0.58c-0.42,0-0.86,0.21-1.26,0.6c-3.11,3.05-6.2,6.15-9.2,9.2
			c-0.79,0.8-0.79,1.69-0.01,2.49c3.71,3.79,6.58,6.64,9.3,9.26c0.17,0.16,0.64,0.36,1.05,0.54l0.13,0.06l0.12-0.06
			c0.42-0.18,0.89-0.39,1.07-0.57c2.94-2.83,5.98-5.86,9.29-9.26c0.76-0.78,0.76-1.63,0.02-2.39
			C34.01,22.19,30.89,19.07,27.66,15.92z M26.38,32.8l-6.65-6.38l6.83-6.67l6.32,6.71L26.38,32.8z"/>
		<path class="st1" d="M92.57,44.5c-2.99-3.12-6.07-6.16-8.97-9.01c-0.9-0.88-1.8-0.89-2.69-0.01c-2.88,2.83-5.82,5.78-9.01,9.01
			c-1.21,1.22-0.6,2.12-0.05,2.69c3,3.05,6.06,6.11,9.11,9.11c0.87,0.85,1.71,0.85,2.58,0c2.75-2.69,5.97-5.88,9.07-9.11
			c0.21-0.22,0.44-0.69,0.67-1.18l0.06-0.12l-0.06-0.13C93.04,45.24,92.81,44.75,92.57,44.5z M82.02,52.42l-6.32-6.65l6.61-6.34
			l6.29,6.45L82.02,52.42z"/>
	</g>
</g>
</svg>
