<?xml version="1.0" encoding="utf-8"?>
<!-- Generator: Adobe Illustrator 27.2.0, SVG Export Plug-In . SVG Version: 6.00 Build 0)  -->
<svg version="1.1" id="Layer_1" xmlns="http://www.w3.org/2000/svg" xmlns:xlink="http://www.w3.org/1999/xlink" x="0px" y="0px"
	 viewBox="0 0 156.23 106.97" style="enable-background:new 0 0 156.23 106.97;" xml:space="preserve">
<style type="text/css">
	.st0{fill:#1E201F;}
	.st1{fill:#F0B600;}
</style>
<g>
	<path class="st0" d="M154.17,75.63c-4.89-2.47-9.32-4.68-13.56-6.76c-0.47-0.23-1-0.4-1.43-0.53c-0.07-0.02-0.13-0.04-0.19-0.06
		c-1.82,0.13-2.19,0.94-2.38,1.69c-0.21,0.82-0.24,1.86,1.4,2.69c4.43,2.25,9.06,4.57,14.14,7.09c1.27,0.63,2.96,1.03,3.82-0.6
		c0.3-0.57,0.37-1.08,0.21-1.58C155.95,76.86,155.24,76.17,154.17,75.63z"/>
	<path class="st0" d="M139.88,34.57c5.6-2.71,10.28-5.03,14.89-7.5c0.49-0.26,0.96-0.94,1.31-1.44c0.05-0.08,0.1-0.15,0.15-0.22
		c-0.07-1.04-0.5-1.89-1.19-2.34c-0.32-0.21-0.68-0.32-1.04-0.32c-0.3,0-0.61,0.07-0.91,0.21c-4.57,2.16-9.44,4.58-15.33,7.64
		c-1.19,0.62-1.58,1.78-1,2.95C137.37,34.77,138.62,35.18,139.88,34.57z"/>
	<path class="st0" d="M139.06,53.78c1.7,0.04,3.43,0.03,5.11,0.02c0.75,0,1.5-0.01,2.25-0.01l2.14,0.01
		c1.67,0.01,3.34,0.01,5.01-0.01c1.3-0.02,2.69-0.62,2.7-2.23c0.01-1.32-1-2.26-2.44-2.28c-2.52-0.04-5.01-0.07-7.44-0.07
		c-2.57,0-5.08,0.03-7.52,0.08c-0.71,0.01-1.32,0.26-1.75,0.71c-0.4,0.42-0.61,0.99-0.6,1.61C136.55,52.94,137.5,53.75,139.06,53.78
		z"/>
	<g>
		<path class="st0" d="M122.18,3.46c0-1.84-0.3-2.64-1.21-3.16c-0.98-0.56-1.72-0.32-3.48,0.72l-4.4,2.6
			c-7.48,4.41-15.21,8.98-22.92,13.29c-3.27,1.83-6.63,3.39-10.19,5.05c-1.62,0.75-3.28,1.53-4.96,2.34l-0.15,0.06l-9.75,3.43
			c-2.1,0.47-4.18,1.01-6.38,1.59c-0.93,0.24-1.87,0.49-2.84,0.74l-1.74,0.44l-0.13-1.79c-0.03-0.36-0.05-0.67-0.08-0.95
			c-0.05-0.57-0.08-1.02-0.09-1.47c-0.06-3.12-0.57-3.63-3.59-3.63c-6.41,0-12.82,0-19.23,0l-7,0l-1.85-0.01
			c-1.39-0.01-2.79-0.01-4.18,0.01c-1.15,0.02-2.03,0.31-2.46,0.82c-0.31,0.36-0.41,0.86-0.32,1.52c0.81,5.83-2.76,7.94-5.96,9.12
			c-1.49,0.55-2.91,1.3-4.41,2.1c-0.94,0.5-1.92,1.02-2.92,1.48c-1.42,0.66-1.97,1.5-1.95,3c0.06,4.9,0.04,9.87,0.01,14.15
			C0,56.26,0.48,57.02,1.72,57.62c1.57,0.76,3.12,1.54,4.68,2.33c2.01,1.01,4.08,2.06,6.14,3.03c2.03,0.96,2.91,2.45,2.59,4.46
			c0.01,0.15,0.01,0.26,0,0.36c-0.15,2.39,0.08,3.73,0.72,4.36c0.63,0.62,1.96,0.83,3.96,0.65c0.08-0.01,0.15-0.01,0.23-0.01
			c0.39,0,0.73,0.09,1.03,0.17c0.12,0.03,0.26,0.07,0.42,0.1l1.21,0.24l0,11.09c0,6.36,0,12.71,0.01,19.07
			c0.01,2.83,0.67,3.48,3.53,3.49c5.82,0.02,11.24,0.02,16.58,0c2.85-0.01,3.47-0.64,3.48-3.54c0.01-6.24,0.01-12.49,0.01-18.73
			l0-10.99l1.12-0.29c0.8-0.21,1.59-0.34,2.35-0.47c1.37-0.23,2.66-0.45,3.27-1.02c0.5-0.46,0.75-1.75,0.99-2.99
			c0.15-0.77,0.3-1.57,0.53-2.38l0.41-1.41l4.08,1.09c0.2,0.05,0.4,0.11,0.6,0.16v-4.54c-0.1-0.02-0.2-0.05-0.29-0.07
			c-0.82-0.19-1.64-0.39-2.46-0.59c-1.54-0.37-3.11-1.12-3.07-3.81c0.07-6.1,0.07-12.4,0-19.24c-0.02-2.25,0.95-3.41,3.16-3.78
			c12.8-2.12,24.47-7.78,34.4-12.92c5.1-2.64,10.17-5.57,15.08-8.4c2.24-1.29,4.48-2.58,6.73-3.85l4.3-2.42v81.97l-3.03-1.7
			c-0.53-0.29-1-0.56-1.47-0.84c-0.63-0.38-1.26-0.76-1.9-1.14v5.42c2.12,1.31,4.27,2.66,6.47,4.07c1.58,1.02,2.38,1.19,3.29,0.72
			c0.99-0.51,1.31-1.3,1.31-3.25C122.16,62.5,122.16,32.98,122.18,3.46z M15.05,59.13l-2.17-1.09c-0.62-0.31-1.22-0.61-1.82-0.9
			c-1.77-0.87-3.44-1.7-5.09-2.61C5,53.99,4.69,52.75,4.61,51.81C4.54,51,4.55,50.2,4.56,49.43c0-0.3,0.01-0.59,0.01-0.89
			c0-7.36,1.04-8.67,8.55-10.86l1.92-0.56V59.13z M41.57,102.27H27.44V72.98h14.13V102.27z M49.13,68.26H19.89V27.44h29.24V68.26z"
			/>
	</g>
</g>
<g>
	<path class="st1" d="M104.73,78.42l-1.34-0.16c-0.62-0.08-1.23-0.15-1.87-0.23c-0.4-1.04-0.87-2.17-1.48-3.55
		c0.64-0.78,1.26-1.59,1.88-2.39l0.21-0.26c0.64-0.83,0.58-1.67-0.16-2.41c-1.58-1.57-3.16-3.14-4.75-4.71
		c-0.79-0.78-1.61-0.82-2.49-0.13L94.18,65c-0.69,0.54-1.37,1.07-2.06,1.62c-0.6-0.25-1.2-0.5-1.8-0.75
		c-0.56-0.23-1.12-0.46-1.67-0.69c-0.09-0.64-0.18-1.27-0.26-1.91c-0.06-0.46-0.12-0.92-0.18-1.38c-0.15-1.1-0.73-1.62-1.82-1.62
		c-2.25-0.01-4.49-0.01-6.74,0c-1.12,0-1.71,0.53-1.85,1.67l-0.16,1.27c-0.08,0.65-0.16,1.29-0.24,1.94
		c-1.25,0.49-2.4,0.97-3.54,1.47c-0.73-0.58-1.46-1.16-2.2-1.73l-0.38-0.3c-0.92-0.71-1.72-0.67-2.53,0.15
		c-1.55,1.56-3.09,3.12-4.63,4.68c-0.82,0.83-0.87,1.61-0.16,2.52l0.21,0.27c0.6,0.77,1.2,1.55,1.83,2.33
		c-0.49,1.1-0.97,2.27-1.44,3.49c-0.63,0.07-1.26,0.15-1.89,0.23l-1.35,0.17c-1.11,0.13-1.67,0.76-1.67,1.85c0,2.23,0,4.46,0,6.69
		c0,1.09,0.55,1.71,1.64,1.83l0.87,0.1c0.8,0.09,1.61,0.18,2.41,0.28c0.23,0.53,0.45,1.06,0.67,1.59c0.26,0.63,0.53,1.27,0.81,1.92
		c-0.7,0.87-1.38,1.75-2.06,2.64c-0.13,0.17-0.22,0.34-0.31,0.51l-0.39,0.7l0.33,0.48c0.04,0.06,0.08,0.13,0.12,0.19
		c0.11,0.18,0.24,0.39,0.43,0.59c1.54,1.57,3.09,3.13,4.64,4.68c0.81,0.82,1.62,0.87,2.59,0.12c0.85-0.66,1.69-1.31,2.53-1.99
		c0.96,0.42,2.2,0.96,3.5,1.44c0.09,0.84,0.2,1.68,0.3,2.51l0.1,0.79c0.17,1.33,1.07,1.61,1.81,1.61c1.1,0,2.2,0.01,3.3,0.01
		c1.16,0,2.32,0,3.48-0.01c0.72,0,1.61-0.28,1.77-1.59l0.07-0.55c0.11-0.92,0.22-1.84,0.31-2.78c1.13-0.44,2.29-0.93,3.53-1.47
		c0.63,0.52,1.28,1.02,1.93,1.52l0.66,0.51c0.89,0.7,1.68,0.66,2.49-0.11c1.61-1.54,3.21-3.09,4.82-4.64
		c0.8-0.77,0.85-1.62,0.16-2.5c-0.68-0.87-1.35-1.74-2.05-2.62c0.26-0.61,0.51-1.22,0.76-1.83c0.22-0.54,0.45-1.09,0.68-1.63
		c0.63-0.09,1.26-0.17,1.89-0.25c0.47-0.06,0.93-0.12,1.4-0.18c1.12-0.16,1.62-0.73,1.63-1.87c0-2.21,0-4.42,0-6.64
		C106.44,79.14,105.93,78.57,104.73,78.42z M98.45,87.7c-0.42,1.6-1,2.97-1.76,4.18c-0.45,0.72-0.41,1.49,0.12,2.17
		c0.57,0.72,1.12,1.44,1.67,2.14l0.1,0.12l-2.96,2.97l-0.14-0.11c-0.66-0.52-1.33-1.04-1.98-1.58c-0.76-0.63-1.53-0.69-2.37-0.18
		c-1.3,0.79-2.75,1.38-4.29,1.75c-0.81,0.2-1.31,0.76-1.4,1.59c-0.11,0.98-0.22,1.95-0.35,2.93c-1.33,0.01-2.66,0.01-4.02,0.01
		h-0.14l-0.01-0.06c-0.09-0.64-0.17-1.27-0.24-1.9c-0.21-1.92-0.45-2.24-2.14-2.86l-0.17-0.06c-1.12-0.41-2.24-0.95-3.32-1.46
		l-0.42-0.2c-0.74-0.35-1.42-0.29-2.03,0.19c-0.72,0.57-1.44,1.13-2.15,1.67l-0.11,0.08l-2.97-2.98c0.38-0.5,0.77-1.02,1.21-1.49
		c0.99-1.06,1.11-2.1,0.39-3.39c-0.58-1.03-0.99-2.24-1.38-3.41l-0.14-0.41c-0.19-0.56-0.58-1.33-1.75-1.45
		c-0.85-0.09-1.69-0.19-2.55-0.29l-0.22-0.03V81.5l0.26-0.03c0.81-0.1,1.62-0.19,2.43-0.29c1.19-0.13,1.58-0.47,1.89-1.64
		c0.43-1.62,1.01-2.98,1.77-4.19c0.45-0.72,0.41-1.49-0.12-2.16c-0.55-0.7-1.1-1.41-1.64-2.11l-0.13-0.16l2.97-2.96l0.14,0.11
		c0.66,0.52,1.35,1.05,2.02,1.61c0.72,0.6,1.5,0.66,2.32,0.17c1.37-0.81,2.83-1.41,4.34-1.76c0.82-0.19,1.32-0.76,1.41-1.59
		c0.09-0.88,0.2-1.76,0.31-2.64l0.03-0.26h4.25l0.01,0.1c0.08,0.68,0.17,1.37,0.24,2.05l0.01,0.12c0.16,1.41,0.27,1.88,1.53,2.26
		c0.14,0.04,0.3,0.09,0.51,0.16c1.28,0.45,2.55,1.05,3.85,1.66c0.29,0.14,1.17,0.55,2.12-0.18c0.72-0.57,1.45-1.13,2.16-1.68
		l0.11-0.09l2.96,2.96l-0.14,0.18c-0.53,0.67-1.06,1.35-1.61,2.02c-0.59,0.72-0.65,1.48-0.17,2.28c0.81,1.35,1.4,2.81,1.77,4.34
		c0.26,1.08,1.02,1.38,1.62,1.44c0.87,0.09,1.75,0.2,2.62,0.31l0.27,0.03v4.2l-0.25,0.03c-0.8,0.1-1.6,0.19-2.39,0.28
		C99.16,86.18,98.76,86.51,98.45,87.7z"/>
	<path class="st1" d="M83.08,71.9l-0.09,0c-3.1,0-6.03,1.22-8.25,3.42c-2.22,2.21-3.45,5.15-3.46,8.27
		c-0.02,6.46,5.23,11.72,11.72,11.74c3.1,0,6.03-1.22,8.25-3.42c2.22-2.21,3.45-5.15,3.46-8.27c0.01-3.12-1.21-6.06-3.42-8.28
		C89.08,73.14,86.14,71.91,83.08,71.9z M91.69,83.62c0,2.32-0.91,4.51-2.57,6.15c-1.64,1.63-3.81,2.53-6.11,2.53
		c-0.01,0-0.02,0-0.02,0c-4.78-0.02-8.67-3.91-8.67-8.69c0-2.32,0.91-4.5,2.56-6.15c1.64-1.64,3.81-2.54,6.14-2.54c0,0,0,0,0,0
		C87.8,74.94,91.69,78.84,91.69,83.62z"/>
</g>
</svg>
