<?xml version="1.0" encoding="utf-8"?>
<!-- Generator: Adobe Illustrator 27.2.0, SVG Export Plug-In . SVG Version: 6.00 Build 0)  -->
<svg version="1.1" id="Layer_1" xmlns="http://www.w3.org/2000/svg" xmlns:xlink="http://www.w3.org/1999/xlink" x="0px" y="0px"
	 viewBox="0 0 154.11 120.37" style="enable-background:new 0 0 154.11 120.37;" xml:space="preserve">
<style type="text/css">
	.st0{fill:#1E201F;}
	.st1{fill:#F0B600;}
</style>
<g>
	<path class="st0" d="M50.97,45.94c0-2.79-0.6-3.39-3.34-3.39c-4.48,0-8.96-0.01-13.44-0.01c-4.48,0-8.96,0-13.44,0.01
		c-2.68,0-3.25,0.58-3.25,3.25c0,12.8,0,25.61,0,38.42c0,2.64,0.58,3.21,3.29,3.22c8.9,0.01,17.79,0.01,26.69,0
		c2.9,0,3.49-0.58,3.49-3.43c0-4.46,0-8.91,0-13.37l0-5.57l0-5.62C50.97,54.94,50.97,50.44,50.97,45.94z M46.24,82.73H22.18V47.24
		h24.06V82.73z"/>
	<path class="st0" d="M108.44,44.77c-0.03-1.25-0.69-1.99-1.98-2.18c-0.31-0.05-0.64-0.05-0.98-0.04l-0.22,0
		c-13.63,0-27.26,0-40.89,0l-0.18,0c-0.36,0-0.69,0-1.02,0.05c-1.19,0.2-1.84,0.93-1.89,2.1c-0.05,1.24,0.6,2.06,1.84,2.3
		c0.45,0.09,0.92,0.09,1.42,0.08l0.3,0c5.33,0,10.67,0,16,0h7.33c5.55,0,11.11,0,16.66,0l0.37,0c0.48,0.01,0.93,0.01,1.36-0.07
		C107.84,46.8,108.47,46.04,108.44,44.77z"/>
	<path class="st0" d="M95.68,64.94c-0.04-1.31-1.05-2.2-2.51-2.2c-10.36-0.03-19.96-0.03-29.34,0.01c-0.7,0-1.45,0.23-1.63,0.49
		c-0.45,0.66-0.85,1.68-0.74,2.45c0.19,1.36,1.53,1.56,2.31,1.56c0,0,0,0,0.01,0c2.3,0,4.6,0,6.9,0c1.31,0,2.62,0,3.93,0l7.95,0
		c3.52,0,7.05,0.01,10.57-0.01c0.83,0,1.53-0.27,2-0.75C95.49,66.09,95.69,65.55,95.68,64.94z"/>
	<path class="st0" d="M82.21,85.14c0-1.44-0.95-2.27-2.6-2.28c-5.16-0.05-10.43-0.04-15.66,0c-1.57,0.01-2.63,0.94-2.62,2.3
		c0,1.37,1.02,2.23,2.65,2.25c1.8,0.03,3.61,0.02,5.41,0.01l2.32,0l2.31,0.01c1.87,0.01,3.74,0.01,5.61-0.02
		C81.29,87.39,82.21,86.58,82.21,85.14z"/>
	<path class="st0" d="M46.48,16.86c1.45-0.03,2.74-1.36,2.71-2.79c-0.03-1.45-1.3-2.71-2.74-2.71c-0.01,0-0.03,0-0.04,0
		c-1.46,0.03-2.72,1.33-2.7,2.79c0.01,0.7,0.33,1.4,0.87,1.93C45.1,16.59,45.78,16.85,46.48,16.86z"/>
	<path class="st0" d="M18.39,16.87C18.39,16.87,18.4,16.87,18.39,16.87c0.7,0,1.39-0.3,1.9-0.82c0.53-0.53,0.83-1.25,0.82-1.96
		c-0.01-0.71-0.32-1.42-0.85-1.94c-0.51-0.5-1.19-0.78-1.87-0.78c-0.02,0-0.03,0-0.05,0c-0.71,0.01-1.38,0.31-1.88,0.84
		c-0.52,0.54-0.79,1.25-0.77,1.99C15.73,15.64,16.96,16.87,18.39,16.87z"/>
	<path class="st0" d="M32.42,16.86C32.42,16.86,32.42,16.86,32.42,16.86c1.41,0,2.69-1.25,2.74-2.66c0.02-0.7-0.25-1.4-0.76-1.95
		c-0.51-0.54-1.21-0.87-1.91-0.89c-0.02,0-0.05,0-0.07,0c-0.68,0-1.33,0.27-1.84,0.76c-0.54,0.52-0.85,1.23-0.86,1.96v0
		c-0.01,0.72,0.29,1.44,0.81,1.97C31.04,16.58,31.72,16.86,32.42,16.86z"/>
	<path class="st0" d="M126.03,13.04C126.02,5,121.04,0,113.02,0C96.37,0,79.71,0,63.06,0S29.75,0,13.09,0C4.9,0,0,4.91,0,13.13
		c0,33.37,0,60.74,0,94.11c0,8.22,4.9,13.13,13.09,13.13c33.31,0.01,66.62,0.01,99.93,0c8.01,0,13-5,13-13.04l-0.02-14.34
		l-4.58,4.72l0,5.12c0,3.43,0-0.49-0.01,4.85c-0.01,5.15-2.96,8.11-8.1,8.11c-33.55,0.02-67.09,0.02-100.64,0
		c-5.14,0-8.09-2.96-8.1-8.12c-0.01-27.72,0-49.43,0-77.15c0-0.36,0.02-0.72,0.05-1.12l0.05-0.95h116.74l0,6.83
		c0,2.27,0,3.29,0.02,7.2l4.58-4.65l0-9.02C126.03,23.97,126.03,20.12,126.03,13.04z M121.39,19.52c-0.02,1.25-0.04,2.51-0.04,3.78
		v0.38H4.58V20.1c0-0.83,0-1.67-0.01-2.5c-0.01-1.84-0.02-3.75,0.03-5.62c0.11-4.14,2.97-7.11,7.13-7.38
		c0.51-0.03,1.02-0.03,1.53-0.03l0.3,0c32.99,0,65.98,0,98.96,0c0.71,0,1.36,0,2.01,0.05c3.73,0.3,6.51,2.91,6.75,6.33
		C121.48,13.79,121.43,16.7,121.39,19.52z"/>
	<path class="st1" d="M150.77,40.45c-2.17-2.13-4.85-3.19-7.58-3.19c-2.93,0-5.91,1.22-8.36,3.65c-1.64,1.62-3.27,3.25-5,4.97
		l-1.62,1.61l-8.09,8.24c-9.83,9.8-18.86,18.88-27.62,27.73c-0.75,0.76-1.4,1.79-1.79,2.85c-1.34,3.58-2.65,7.24-3.92,10.78
		c-0.79,2.22-1.59,4.44-2.39,6.65c-0.51,1.39-0.61,2.37,0.33,3.25c0.87,0.82,1.82,0.7,3.15,0.22c1.95-0.71,3.9-1.4,5.86-2.1
		c3.8-1.36,7.73-2.77,11.58-4.2c0.99-0.37,2-1.02,2.84-1.84c3.05-2.96,6.04-5.94,9.21-9.1l0.27-0.26l9.44-9.57
		c0.11-0.15,0.27-0.32,0.44-0.49c7.45-7.4,14.98-14.96,23.05-23.12c2.32-2.34,3.58-5.31,3.55-8.36
		C154.09,45.28,152.9,42.54,150.77,40.45z M139.37,61.19c-0.18,0.21-0.42,0.51-0.7,0.79l-3.35,3.37
		c-9.91,9.96-19.83,19.91-29.77,29.84c-0.73,0.73-1.67,1.34-2.65,1.71c-2.82,1.07-5.66,2.08-8.67,3.16l-4.15,1.48l1.34-3.74
		c1.24-3.45,2.4-6.7,3.59-9.94c0.17-0.46,0.5-0.95,0.99-1.44c11.28-11.34,22.57-22.67,33.86-33.99c0.16-0.17,0.34-0.31,0.47-0.42
		l0.36-0.3l9.05,9.05L139.37,61.19z M148.06,52.44c-0.96,1.11-2.03,2.12-3.06,3.1c-0.45,0.43-0.9,0.85-1.33,1.28l-0.26,0.26
		l-9.11-9.05l0.27-0.27c0.45-0.44,0.89-0.9,1.33-1.37c1.02-1.06,2.07-2.15,3.22-3.12c2.51-2.12,6.08-1.9,8.5,0.51
		C150.07,46.24,150.26,49.88,148.06,52.44z"/>
</g>
</svg>
