<?xml version="1.0" encoding="utf-8"?>
<!-- Generator: Adobe Illustrator 27.2.0, SVG Export Plug-In . SVG Version: 6.00 Build 0)  -->
<svg version="1.1" id="Layer_1" xmlns="http://www.w3.org/2000/svg" xmlns:xlink="http://www.w3.org/1999/xlink" x="0px" y="0px"
	 viewBox="0 0 126.03 120.36" style="enable-background:new 0 0 126.03 120.36;" xml:space="preserve">
<style type="text/css">
	.st0{fill:#1E201F;}
	.st1{fill:#F0B600;}
</style>
<g>
	<path class="st0" d="M46.48,16.86c1.45-0.03,2.74-1.36,2.71-2.79c-0.03-1.45-1.3-2.71-2.74-2.71c-0.01,0-0.03,0-0.04,0
		c-1.46,0.03-2.72,1.33-2.7,2.79c0.01,0.7,0.33,1.4,0.87,1.93C45.1,16.59,45.78,16.85,46.48,16.86z"/>
	<path class="st0" d="M18.39,16.87C18.39,16.87,18.4,16.87,18.39,16.87c0.7,0,1.39-0.3,1.9-0.82c0.53-0.53,0.83-1.25,0.82-1.96
		c-0.01-0.71-0.32-1.42-0.85-1.94c-0.51-0.5-1.19-0.78-1.87-0.78c-0.02,0-0.03,0-0.05,0c-0.71,0.01-1.38,0.31-1.88,0.84
		c-0.52,0.54-0.79,1.25-0.77,1.99C15.73,15.64,16.96,16.86,18.39,16.87z"/>
	<path class="st0" d="M32.42,16.86C32.42,16.86,32.42,16.86,32.42,16.86c1.41,0,2.69-1.25,2.74-2.66c0.02-0.7-0.25-1.4-0.76-1.95
		c-0.51-0.54-1.21-0.87-1.91-0.89c-0.02,0-0.05,0-0.07,0c-0.68,0-1.33,0.27-1.84,0.76c-0.54,0.52-0.85,1.23-0.86,1.96v0
		c-0.01,0.72,0.29,1.44,0.81,1.97C31.04,16.57,31.72,16.86,32.42,16.86z"/>
	<path class="st0" d="M113.02,0L13.09,0C4.9,0,0,4.91,0,13.13c0,33.37,0,60.74,0,94.11c0,8.22,4.9,13.13,13.09,13.13
		c33.31,0.01,66.62,0.01,99.93,0c8.01,0,13-5,13-13.04l0-94.29C126.02,5,121.04,0,113.02,0z M4.6,11.98
		c0.11-4.14,2.97-7.11,7.13-7.38c0.51-0.03,1.02-0.03,1.53-0.03l0.3,0c32.99,0,65.98,0,98.96,0c0.71,0,1.36,0,2.01,0.05
		c3.73,0.3,6.51,2.91,6.75,6.33c0.2,2.83,0.15,5.75,0.11,8.56c-0.02,1.25-0.04,2.51-0.04,3.78v0.38H4.58V20.1
		c0-0.83,0-1.67-0.01-2.5C4.56,15.76,4.55,13.86,4.6,11.98z M121.43,107.67c-0.01,5.15-2.96,8.11-8.1,8.11
		c-33.55,0.02-67.09,0.02-100.64,0c-5.14,0-8.09-2.96-8.1-8.12c-0.01-27.72,0-49.43,0-77.15c0-0.36,0.02-0.72,0.05-1.12l0.05-0.95
		h116.74L121.43,107.67z"/>
</g>
<g>
	<g>
		<path class="st1" d="M94.86,76.11c0.22,0.08,0.68,0.19,1.08,0.39c2.37,1.16,4.72,2.34,7.08,3.53c1.39,0.7,1.86,1.8,1.28,2.9
			c-0.56,1.06-1.68,1.32-3.03,0.65c-2.47-1.22-4.93-2.45-7.38-3.7c-0.93-0.47-1.4-1.25-1.13-2.3
			C92.99,76.67,93.64,76.15,94.86,76.11z"/>
		<path class="st1" d="M104.53,54.8c-0.24,0.28-0.6,0.99-1.18,1.3c-2.56,1.38-5.17,2.66-7.79,3.93c-1.08,0.52-2.17,0.11-2.67-0.88
			c-0.47-0.95-0.18-2.04,0.86-2.58c2.65-1.38,5.32-2.72,8.02-4C103.11,51.93,104.58,52.96,104.53,54.8z"/>
		<path class="st1" d="M98.63,70.13c-1.29,0-2.57,0.02-3.86-0.01c-1.24-0.03-2.06-0.8-2.09-1.9c-0.03-1.08,0.78-1.99,1.99-2.01
			c2.61-0.05,5.22-0.05,7.83,0c1.22,0.02,2.05,0.9,2.04,1.98c-0.01,1.13-0.88,1.92-2.18,1.94C101.12,70.14,99.87,70.13,98.63,70.13z
			"/>
	</g>
	<path class="st0" d="M86.77,43.09c0-0.94-0.13-1.81-1.02-2.33c-0.96-0.55-1.76-0.12-2.6,0.38c-4.73,2.79-9.44,5.6-14.23,8.27
		c-2.46,1.38-5.08,2.49-7.86,3.83l-4.99,1.76c-1.58,0.35-3.14,0.79-4.83,1.22c-0.04-0.55-0.08-0.89-0.09-1.22
		c-0.04-2.05-0.64-2.66-2.66-2.66c-4.56,0-9.12,0-13.68,0c-1.05,0-2.1-0.02-3.16,0c-1.44,0.03-2.4,0.75-2.21,2.11
		c0.31,2.22-0.72,3.22-2.6,3.92c-1.34,0.5-2.57,1.28-3.88,1.89c-1,0.46-1.48,1.17-1.47,2.28c0.03,2.45,0.02,4.91,0,7.37
		c-0.01,1.01,0.42,1.68,1.33,2.13c1.89,0.92,3.75,1.9,5.65,2.8c0.71,0.33,1.04,0.76,0.91,1.53c-0.01,0.08,0,0.16,0,0.23
		c-0.15,2.37,0.28,3.71,3.29,3.44c0.18-0.02,0.37,0.07,0.65,0.12c0,0.45,0,0.87,0,1.29c0,4.6-0.01,9.2,0,13.8
		c0,1.92,0.69,2.6,2.62,2.6c2.88,0.01,5.77,0.01,8.65,0c1.92-0.01,2.59-0.68,2.59-2.62c0.01-4.56,0-9.12,0-13.68
		c0-0.46,0-0.92,0-1.22c1.22-0.32,2.55-0.3,3.26-0.96c0.66-0.61,0.66-1.94,1.01-3.16c1.59,0.42,3.3,0.9,5.02,1.33l4.56,1.74
		c0.55,0.22,0.91,0.34,1.26,0.5c7.28,3.23,14.16,7.18,20.85,11.48c0.79,0.51,1.58,0.89,2.5,0.41c0.98-0.5,1.11-1.41,1.11-2.39
		C86.76,73.88,86.76,58.49,86.77,43.09z M29.33,70.86c-1.27-0.63-2.44-1.19-3.57-1.82c-0.2-0.11-0.28-0.52-0.31-0.8
		c-0.05-0.54-0.02-1.09-0.02-1.64c0-3.49,0.28-3.86,3.9-4.91C29.33,64.75,29.33,67.7,29.33,70.86z M43.16,93.84
		c-1.94,0-3.83,0-5.8,0c0-4.57,0-9.1,0-13.71c1.94,0,3.83,0,5.8,0C43.16,84.71,43.16,89.24,43.16,93.84z M47.1,76.1
		c-0.47,0-0.85,0-1.23,0c-4.12,0-8.24,0-12.45,0c0-6.62,0-13.13,0-19.72c4.53,0,9.06,0,13.68,0C47.1,62.88,47.1,69.39,47.1,76.1z
		 M82.76,86.23c-0.45-0.25-0.81-0.44-1.16-0.65c-7.03-4.26-14.2-8.27-21.95-11.09c-2.44-0.89-5-1.43-7.53-2.04
		c-0.75-0.18-1.01-0.44-1-1.22c0.04-3.35,0.04-6.7,0-10.05c-0.01-0.76,0.18-1.06,0.99-1.19c6.5-1.07,12.4-3.83,18.17-6.82
		c3.87-2,7.6-4.26,11.4-6.4c0.3-0.17,0.6-0.34,1.07-0.6C82.76,59.59,82.76,72.82,82.76,86.23z"/>
</g>
</svg>
