<?xml version="1.0" encoding="utf-8"?>
<!-- Generator: Adobe Illustrator 27.2.0, SVG Export Plug-In . SVG Version: 6.00 Build 0)  -->
<svg version="1.1" id="Layer_1" xmlns="http://www.w3.org/2000/svg" xmlns:xlink="http://www.w3.org/1999/xlink" x="0px" y="0px"
	 viewBox="0 0 104.43 121.4" style="enable-background:new 0 0 104.43 121.4;" xml:space="preserve">
<style type="text/css">
	.st0{fill:#1E201F;}
	.st1{fill:#EFB500;}
</style>
<path class="st0" d="M104.16,38.58C96.36,12.59,69.56-3.99,43.15,0.83C23.42,4.43,9.41,15.9,1.49,34.91
	c-0.14,0.34-0.26,0.69-0.38,1.04c-0.12,0.37-0.24,0.73-0.4,1.09C-0.55,39.9-0.15,42.4,2,45.16c8.33,10.68,16.66,21.65,24.71,32.26
	l4.91,6.46c0.29,0.39,0.5,1,0.5,1.51c0.04,3.97,0.03,7.94,0.03,11.9l0,8.01c0,3.5,0,7,0,10.51c0,3.75,1.83,5.58,5.57,5.58
	c4.66,0,9.32,0,13.99,0c4.99,0,9.97,0,14.96-0.01c3.72,0,5.54-1.84,5.54-5.62l0-6.03c0-7.91,0.01-15.82-0.03-23.73
	c0-1.04,0.28-1.86,0.95-2.73c4.01-5.2,7.99-10.42,11.96-15.63l3.58-4.69c1.29-1.68,2.56-3.37,3.84-5.06
	c3.25-4.29,6.61-8.72,10-13.01C103.85,43.22,104.97,41.29,104.16,38.58z M55.61,86.26v9.46h-6.88v-9.46H55.61z M29.89,48.93
	c0.39-0.45,0.75-0.85,1.1-1.27c2.06-2.48,5.05-3.9,8.2-3.91c0.01,0,0.02,0,0.02,0c3.14,0,6.14,1.42,8.22,3.88
	c0.36,0.42,0.76,0.8,1.14,1.16c0.29,0.27,0.58,0.54,0.84,0.83c0.27,0.29,0.37,0.53,0.37,0.61c0.02,9.07,0.02,18.13,0.02,27.32v3.83
	c-0.3,0-0.6,0-0.9,0.01c-1.35,0.01-2.63,0.02-3.87-0.04c-0.09-0.05-0.32-0.33-0.51-0.73C40.7,72.7,36.9,64.77,33.1,56.84l-3.58-7.47
	L29.89,48.93z M55.53,81.39c-0.32,0-0.64,0.01-0.97,0.01l0-6.73c0-7.95,0-15.89-0.02-23.84c0-0.72,0.09-1.08,0.66-1.42
	c0.59-0.35,1.04-0.9,1.47-1.42l0.24-0.29c2.12-2.53,5.19-3.95,8.35-3.94c3.18,0.03,6.19,1.51,8.25,4.06
	c0.32,0.39,0.65,0.78,1.01,1.19l0.33,0.38l-7.16,14.9c-2.61,5.44-5.22,10.87-7.81,16.32c-0.34,0.71-0.57,0.87-1.2,0.83
	c-0.61-0.04-1.22-0.05-1.84-0.05C56.42,81.37,55.98,81.38,55.53,81.39z M79.08,44.8c-0.46,0.57-0.78,0.86-0.95,0.86c0,0,0,0,0,0
	c-0.16,0-0.47-0.28-0.92-0.84c-2.97-3.7-7.35-5.83-12.02-5.83c-0.01,0-0.01,0-0.02,0c-4.67,0-9.06,2.12-12.04,5.81
	c-0.46,0.57-0.78,0.86-0.95,0.86c0,0,0,0,0,0c-0.17,0-0.48-0.28-0.92-0.83c-3.02-3.72-7.41-5.85-12.06-5.85c-0.02,0-0.04,0-0.05,0
	c-4.66,0.02-9.05,2.17-12.05,5.92c-0.5,0.63-0.75,0.76-0.86,0.76h0c-0.11,0-0.35-0.12-0.84-0.72C20.44,38.9,13,37.31,5.98,40.78
	c-0.35,0.17-0.95,0.21-1.06,0.16c-0.11-0.12-0.18-0.73-0.04-1.15C10.34,23.24,21.63,12.14,38.45,6.8c4.11-1.31,8.75-2.02,12.72-1.97
	h0c22.52,0.08,41.92,14.06,48.26,34.78c0.09,0.29,0.02,0.68-0.05,1.09c-0.01,0.06-0.02,0.12-0.03,0.18c-0.04,0-0.09-0.01-0.14-0.01
	c-0.4-0.03-0.77-0.05-1.04-0.18C91.49,37.35,83.81,39.01,79.08,44.8z M18.08,44.97c0.84,0.43,1.57,1.07,2.34,1.75
	c0.31,0.27,0.61,0.54,0.93,0.79c0.95,0.77,1.93,1.61,3,2.55c0.23,0.2,0.42,0.43,0.52,0.65c4.91,10.2,9.8,20.41,14.7,30.62
	c0.01,0.02,0.02,0.04,0.03,0.07c-0.15,0-0.29,0-0.43-0.01c-0.8-0.01-1.56-0.02-2.31,0.03c-0.78,0.07-1.26-0.17-1.79-0.87
	c-6.05-7.98-12.12-15.94-18.2-23.89L8.05,45.12C11.46,43.3,14.74,43.25,18.08,44.97z M36.91,93.89l0-7.67h6.99v10.25l0,0.4
	c0,0.32,0,0.64,0,0.95c0.05,1.8,0.89,2.68,2.59,2.7c3.81,0.04,7.65,0.04,11.4,0c1.69-0.02,2.55-0.94,2.56-2.73
	c0.01-2.82,0.01-5.64,0.01-8.49l0-3.04h6.96c0.02,0.28,0.03,0.56,0.03,0.83l0,7.49c0,6.98-0.01,13.95,0.03,20.93
	c0,0.5-0.06,0.81-0.19,0.94c-0.13,0.13-0.45,0.2-0.98,0.19c-9.54-0.05-19.05-0.05-28.29,0c-0.48,0.02-0.82-0.06-0.95-0.19
	c-0.13-0.13-0.2-0.45-0.19-0.96C36.92,108.29,36.92,101.09,36.91,93.89z M67.1,81.42c-0.38-0.04-0.75-0.05-1.13-0.05
	c-0.29,0-0.59,0.01-0.91,0.01c-0.09,0-0.19,0-0.28,0.01l6.18-12.88c2.77-5.78,5.54-11.57,8.34-17.34c0.17-0.36,0.53-0.67,0.91-1.01
	c0.16-0.14,0.31-0.28,0.46-0.42c0.26-0.25,0.53-0.49,0.8-0.73c0.49-0.44,1-0.89,1.44-1.41c3.36-4,9.13-5.03,13.35-2.46
	c-0.14,0.21-0.28,0.41-0.43,0.61l-6.11,8c-6.6,8.64-13.42,17.58-20.1,26.4C68.83,81.21,68.18,81.54,67.1,81.42z"/>
<rect x="48.73" y="86.26" class="st1" width="6.88" height="9.46"/>
</svg>
