<?xml version="1.0" encoding="utf-8"?>
<!-- Generator: Adobe Illustrator 27.2.0, SVG Export Plug-In . SVG Version: 6.00 Build 0)  -->
<svg version="1.1" id="Layer_1" xmlns="http://www.w3.org/2000/svg" xmlns:xlink="http://www.w3.org/1999/xlink" x="0px" y="0px"
	 viewBox="0 0 125.06 122.44" style="enable-background:new 0 0 125.06 122.44;" xml:space="preserve">
<style type="text/css">
	.st0{fill:#F0B600;}
	.st1{fill:#1E201F;}
</style>
<g>
	<path class="st0" d="M98.22,14.16c2.01-0.05,3.47,0.38,4.47,2.71c2.17,5.06,7.81,7.76,13.39,6.43c5.15-1.23,9.01-6.2,8.98-11.56
		c-0.03-5.41-4.05-10.35-9.34-11.49c-5.35-1.15-10.9,1.66-13.2,6.67c-0.21,0.46-0.4,0.92-0.6,1.39l-0.52,1.23l-5.41,0
		c-6.54,0-13.3,0.01-19.91-0.05c-0.93-0.01-2.02-0.9-2.38-1.7c-2.31-5.19-5.95-7.71-11.14-7.72c-0.01,0-0.01,0-0.02,0
		c-5.19,0-8.84,2.51-11.15,7.67c-0.37,0.82-1.42,1.74-2.34,1.75c-6.7,0.07-13.5,0.06-20.09,0.06l-5.3,0L23.13,8.3
		c-0.19-0.47-0.37-0.9-0.56-1.32c-2.39-5.23-8.3-8.06-13.75-6.57c-5.38,1.47-9,6.36-8.81,11.88c0.19,5.4,4.19,10.06,9.51,11.1
		c5.54,1.07,10.9-1.73,13.04-6.83c0.86-2.06,2.14-2.45,3.8-2.4c2.36,0.07,4.78,0.06,7.11,0.05c0.86,0,1.72-0.01,2.58-0.01
		c0.4,0,0.81,0,1.21,0c0.4,0,0.77,0.06,1.2,0.13c0.21,0.03,0.44,0.07,0.7,0.11l2.09,0.29l-2.25,1.64c-0.26,0.19-0.45,0.33-0.63,0.46
		c-11.29,7.87-17.72,18.67-19.12,32.1c-0.19,1.78-1.29,2.24-2.27,2.65c-4.85,2.02-7.97,7.01-7.47,11.89
		c0.59,5.82,5.21,10.48,10.74,10.84c6.04,0.4,11.08-3.21,12.55-8.96c1.42-5.56-1.53-11.34-7-13.74c-0.36-0.16-0.72-0.33-1.05-0.49
		l-0.92-0.44l0.03-0.57c0.86-17.3,14.63-31.04,26.91-33.84l0.63-0.15l0.31,0.57c2.45,4.6,6.1,6.94,10.84,6.94c0.01,0,0.03,0,0.04,0
		c4.74-0.01,8.41-2.41,10.91-7.13l0.33-0.63l0.68,0.22c14.35,4.6,25.3,17.86,26.63,32.23c0.14,1.51-0.14,2.61-1.97,3.38
		c-5.48,2.32-8.38,8.1-6.88,13.74c1.45,5.49,6.25,9.08,12.01,8.88c5.39-0.17,10.04-4.28,11.05-9.77c1-5.42-1.94-10.73-7.13-12.92
		l-0.18-0.08c-0.92-0.38-2.08-0.86-2.27-2.71c-1.36-13.06-7.52-23.64-18.29-31.47l-2.17-1.59l0.58-1.59h0.59
		c1.14,0,2.28,0.01,3.42,0.01C92.63,14.22,95.45,14.23,98.22,14.16z M113.21,4.63c0.03,0,0.07,0,0.1,0c1.93,0.03,3.73,0.8,5.06,2.18
		c1.34,1.4,2.06,3.25,2.02,5.21c-0.09,3.87-3.29,6.99-7.15,6.99c-0.02,0-0.05,0-0.07,0c-1.93-0.02-3.72-0.79-5.05-2.16
		c-1.35-1.39-2.07-3.25-2.02-5.21C106.18,7.75,109.36,4.63,113.21,4.63z M11.84,19.02c-0.01,0-0.02,0-0.04,0
		c-1.91,0-3.7-0.74-5.03-2.07c-1.36-1.37-2.11-3.22-2.09-5.2c0.04-3.97,3.15-7.1,7.1-7.11c0.01,0,0.02,0,0.03,0
		c1.91,0,3.7,0.74,5.04,2.09c1.37,1.38,2.11,3.23,2.09,5.2C18.9,15.88,15.78,19,11.84,19.02z M28.53,62.52
		c0.01,1.93-0.74,3.73-2.1,5.09c-1.36,1.35-3.17,2.09-5.1,2.09c-0.03,0-0.06,0-0.1,0c-3.96-0.05-7.08-3.18-7.09-7.12
		c-0.01-1.93,0.74-3.74,2.09-5.09c1.35-1.35,3.17-2.08,5.11-2.08c0.03,0,0.05,0,0.08,0C25.32,55.44,28.51,58.64,28.53,62.52z
		 M67.51,16.99c-1.37,1.31-3.13,2.03-4.98,2.03c-0.06,0-0.13,0-0.19,0c-3.91-0.1-7.06-3.36-7.02-7.25c0.02-1.9,0.85-3.77,2.26-5.12
		c1.4-1.34,3.26-2.08,5.14-2.01c3.92,0.13,7.07,3.4,7.01,7.27C69.72,13.82,68.92,15.63,67.51,16.99z M110.92,62.75
		c-0.05,1.93-0.85,3.71-2.24,5.01c-1.34,1.26-3.1,1.94-4.96,1.94c-0.1,0-0.19,0-0.29,0c-3.93-0.15-7.02-3.44-6.88-7.35
		c0.07-1.93,0.87-3.71,2.26-5.01c1.41-1.31,3.29-1.99,5.24-1.93C107.94,55.55,111.02,58.84,110.92,62.75z"/>
	<path class="st1" d="M75.81,71.31c-3.71-4.17-7.42-8.34-11.14-12.51c-0.75-0.84-1.46-1.26-2.12-1.26c-0.68,0-1.42,0.45-2.21,1.33
		c-2.97,3.33-5.93,6.66-8.89,9.99C46.3,74.65,41.16,80.43,35.99,86.2c-1.04,1.16-1.29,2.23-0.84,3.68
		c3.11,10.22,6.15,20.34,9.04,30.08c0.54,1.82,1.47,2.5,3.38,2.48c3.5-0.06,7.06-0.05,10.49-0.04c2.9,0.01,5.8,0.01,8.7,0
		c3.54-0.01,7.2-0.02,10.8,0.03c1.85,0.02,2.76-0.66,3.26-2.34c2.69-9.04,5.57-18.66,9.09-30.29c0.42-1.4,0.2-2.45-0.76-3.52
		C84.69,81.3,80.25,76.3,75.81,71.31z M84.69,90.83c-2.31,7.96-4.74,16.06-7.44,24.77c-0.25,0.82-1.33,2.06-2.37,2.08
		c-5.4,0.06-10.71,0.07-16.18,0.07c-1.6,0-3.21,0-4.84,0l-5.45,0l-5.28-17.61c-0.25-0.83-0.5-1.67-0.76-2.5
		c-0.69-2.27-1.41-4.61-2.04-6.95c-0.23-0.84-0.09-2.14,0.53-2.84c4.91-5.61,9.96-11.27,14.83-16.74l2.21-2.48
		c0.16-0.18,0.33-0.29,0.55-0.43c0.1-0.07,0.23-0.15,0.4-0.26l1.33-0.92v17.21h4.5V66.65l1.39,1.16c0.27,0.23,0.5,0.41,0.7,0.56
		c0.38,0.29,0.67,0.53,0.93,0.82l1.8,2.02c4.78,5.36,9.72,10.91,14.51,16.42C84.67,88.4,84.98,89.83,84.69,90.83z"/>
</g>
</svg>
