<?xml version="1.0" encoding="utf-8"?>
<!-- Generator: Adobe Illustrator 27.2.0, SVG Export Plug-In . SVG Version: 6.00 Build 0)  -->
<svg version="1.1" id="Layer_1" xmlns="http://www.w3.org/2000/svg" xmlns:xlink="http://www.w3.org/1999/xlink" x="0px" y="0px"
	 viewBox="0 0 197.89 113.6" style="enable-background:new 0 0 197.89 113.6;" xml:space="preserve">
<style type="text/css">
	.st0{fill:#1E201F;}
	.st1{fill:#F0B600;}
</style>
<g>
	<path class="st0" d="M137.61,0c31.32,0.04,54.92,20.14,59.52,47.73c5.07,30.39-15.9,59.9-46.2,65.03
		c-30.31,5.13-58.61-13.73-65.37-43.72c-0.86-3.82-0.99-7.82-1.32-11.75c-0.17-2.01,0.88-3.17,2.49-3.2
		c1.61-0.02,2.61,1.13,2.63,3.13c0.11,10.96,3.15,21.06,9.77,29.78c13.21,17.39,30.94,24.67,52.27,20.26
		c21.76-4.49,35.42-18.49,40.17-40.19c6.3-28.78-13.5-56.78-42.72-61.31C121.8,1.57,96.28,19.19,90.5,46.05
		c-0.42,1.93-1.09,2.75-2.4,2.89c-1.87,0.2-3.19-1.26-2.82-3.19c1.49-7.73,4.44-14.88,9.03-21.27C105.77,8.49,121.46,0.49,137.61,0z
		"/>
	<path class="st0" d="M126.9,56.72c0-7.41,0-14.82,0.01-22.22c0-0.63,0.02-1.29,0.2-1.88c0.53-1.74,2.16-2.26,3.81-1.2
		c3.68,2.34,7.34,4.71,11,7.07c8.02,5.16,16.05,10.31,24.07,15.47c2.78,1.79,2.76,3.98-0.05,5.79c-11.5,7.39-23,14.78-34.49,22.18
		c-0.98,0.63-1.94,1.26-3.14,0.61c-1.26-0.69-1.41-1.89-1.41-3.17C126.91,71.8,126.9,64.26,126.9,56.72z M131.92,38.34
		c0,12.41,0,24.55,0,36.95c9.65-6.21,19.11-12.29,28.74-18.48C150.99,50.6,141.55,44.53,131.92,38.34z"/>
</g>
<g>
	<g>
		<path class="st1" d="M67.51,35.3H42.5c-1.38,0-2.5-1.12-2.5-2.5s1.12-2.5,2.5-2.5h25.01c1.38,0,2.5,1.12,2.5,2.5
			S68.89,35.3,67.51,35.3z"/>
	</g>
	<g>
		<path class="st1" d="M67.51,51.3H2.5c-1.38,0-2.5-1.12-2.5-2.5s1.12-2.5,2.5-2.5h65.01c1.38,0,2.5,1.12,2.5,2.5
			S68.89,51.3,67.51,51.3z"/>
	</g>
	<g>
		<path class="st1" d="M67.51,67.3H15.5c-1.38,0-2.5-1.12-2.5-2.5s1.12-2.5,2.5-2.5h52.01c1.38,0,2.5,1.12,2.5,2.5
			S68.89,67.3,67.51,67.3z"/>
	</g>
	<g>
		<path class="st1" d="M67.51,83.3H42.5c-1.38,0-2.5-1.12-2.5-2.5s1.12-2.5,2.5-2.5h25.01c1.38,0,2.5,1.12,2.5,2.5
			S68.89,83.3,67.51,83.3z"/>
	</g>
</g>
</svg>
