<?xml version="1.0" encoding="utf-8"?>
<!-- Generator: Adobe Illustrator 27.2.0, SVG Export Plug-In . SVG Version: 6.00 Build 0)  -->
<svg version="1.1" id="Layer_1" xmlns="http://www.w3.org/2000/svg" xmlns:xlink="http://www.w3.org/1999/xlink" x="0px" y="0px"
	 viewBox="0 0 143.74 141.73" style="enable-background:new 0 0 143.74 141.73;" xml:space="preserve">
<style type="text/css">
	.st0{fill:#1E201F;}
	.st1{fill:#F0B600;}
</style>
<g>
	<path class="st0" d="M117.91,105.8c-2.63-2.62-5.25-5.24-7.88-7.86c-0.36-0.36-0.71-0.74-1.07-1.12l-1.19-1.27l0.57-0.83
		c9.67-14.07,13.05-28.97,10.3-45.52c-0.01,0.01-0.03,0.02-0.04,0.03c-1.43,1.06-2.78,2.07-4.05,3.11
		c-0.03,0.18-0.04,0.49-0.04,0.67l-0.01,0.19c-0.06,1.74-0.05,3.53-0.04,5.26c0.02,3.69,0.04,7.5-0.57,11.2
		c-2.52,15.41-11.92,29-25.77,37.3c-13.99,8.38-30.6,10.25-45.56,5.13c-26.8-9.16-41.94-35.09-36.83-63.07
		C10.06,25.42,31.2,6.44,54.91,4.84c19.92-1.34,36.33,5.93,48.77,21.6c0.08,0.11,0.18,0.21,0.27,0.31l3.76-2.7
		c-0.09-0.13-0.18-0.25-0.28-0.37C93.12,5.77,74.66-2.04,52.56,0.45c-15.71,1.77-29.8,9.67-39.68,22.23
		C2.87,35.4-1.53,51.2,0.48,67.16c2.48,19.7,14.55,36.83,32.28,45.83c17.73,8.99,38.67,8.61,56.03-1.02
		c0.86-0.48,1.61-0.72,2.31-0.72c0.97,0,1.84,0.46,2.78,1.41c8.39,8.51,16.84,16.93,25.48,25.52c3.54,3.52,8.04,4.47,12.35,2.62
		c3.37-1.45,5.7-4.32,6.39-7.86c0.71-3.65-0.44-7.32-3.15-10.07C129.3,117.15,123.51,111.38,117.91,105.8z M131.75,135.22
		c-1.15,1.12-2.78,1.7-4.4,1.7c-1.2,0-2.4-0.32-3.41-0.97c-0.41-0.27-0.8-0.58-1.15-0.94c-7.03-7.02-14.05-14.05-21.16-21.16
		l-6.02-6.02l9.19-8.33l1.28,1.17c0.35,0.31,0.7,0.63,1.04,0.96c7.92,7.92,15.85,15.84,23.76,23.77c0.62,0.62,1.26,1.26,1.77,2.05
		C134.26,129.95,133.89,133.14,131.75,135.22z"/>
	<polygon class="st1" points="73.83,37.32 26.34,75.1 29.24,78.74 73.25,43.76 87.27,59.72 143.74,14.57 140.83,10.93 87.84,53.28 	
		"/>
</g>
</svg>
