<?xml version="1.0" encoding="utf-8"?>
<!-- Generator: Adobe Illustrator 27.2.0, SVG Export Plug-In . SVG Version: 6.00 Build 0)  -->
<svg version="1.1" id="Layer_1" xmlns="http://www.w3.org/2000/svg" xmlns:xlink="http://www.w3.org/1999/xlink" x="0px" y="0px"
	 viewBox="0 0 139.86 120.56" style="enable-background:new 0 0 139.86 120.56;" xml:space="preserve">
<style type="text/css">
	.st0{fill:#1E201F;}
	.st1{fill:#F0B600;}
</style>
<g>
	<g>
		<path class="st0" d="M123.76,71.95c-5.8-0.32-10.29,2.26-13.35,7.66c-0.04,0.07-0.08,0.13-0.12,0.2c-0.15-0.11-0.3-0.22-0.45-0.33
			c-0.64-0.48-1.25-0.93-1.95-1.27c-0.68-0.33-0.87-0.69-0.86-1.62c0.03-3.34,0.03-6.68,0.02-10.01l0-5.86
			c0.33,0.04,0.65,0.07,0.97,0.11c1.02,0.12,1.99,0.23,2.96,0.26c6,0.22,11.76-1.31,17.34-2.79c0.82-0.22,1.64-0.44,2.47-0.65
			c3.57-0.92,5.66-4.56,4.99-8.64c-0.06-0.33,0.06-0.84,0.25-1.07c1.5-1.84,2.06-3.95,1.72-6.45c-0.06-0.42,0.07-0.97,0.28-1.25
			c2.28-3.02,2.43-6.15,0.47-9.31c-0.22-0.35-0.34-0.77-0.31-1.04c0.37-2.78-0.46-5.34-2.28-7.04c-1.83-1.7-4.46-2.34-7.21-1.76
			c-2.52,0.53-5.04,1.07-7.55,1.61l-2.71,0.58c-0.07-0.67-0.13-1.34-0.2-2c-0.18-1.9-0.36-3.69-0.64-5.51
			c-0.62-4.09-3.65-7.24-7.71-8.01c-0.71-0.14-1.42-0.15-2.18-0.17c-0.19-0.01-0.39-0.01-0.59-0.02c-0.25-6.83-5.01-7.56-8.62-7.58
			C84.71,0.09,70.7,0.08,57.14,0.06c-5.76-0.01-11.53-0.01-17.29-0.01c-4.97,0-7.49,2.54-7.49,7.54l0,5.79
			c0,6.75-0.01,13.74,0.04,20.61c0.01,1.14-0.4,1.45-1.1,1.61c-3,0.69-5.92,1.15-8.61-0.78c-1.15-0.83-2.37-1.59-3.54-2.33
			c-0.51-0.32-1.02-0.64-1.52-0.96c-1.42-0.91-2.69-0.65-3.58,0.74c-4.51,7-9.03,14-13.54,21c-0.87,1.34-0.6,2.57,0.76,3.45
			c0.57,0.37,1.15,0.74,1.73,1.11c1.09,0.7,2.22,1.41,3.3,2.17l0.47,0.32c0.83,0.57,1.69,1.15,2.17,1.9
			c3.42,5.36,7.99,9.68,13.6,12.86c0.76,0.43,1.5,0.93,2.22,1.42c0.75,0.5,1.52,1.03,2.33,1.48c1.19,0.67,2.42,1.26,3.72,1.89
			c0.51,0.25,1.04,0.5,1.58,0.77v32.42c0,4.98,2.53,7.5,7.52,7.51c10.38,0,20.77,0,31.15,0c9.47,0,18.95,0,28.43,0
			c4.37,0,6.41-1.57,7.48-5.69l2.18,1.25c1.88,1.08,3.76,2.15,5.64,3.22c2.58,1.47,4.14,1.17,5.97-1.12c0.66-0.83,1.33-1.65,2-2.48
			c1.55-1.9,3.15-3.87,4.61-5.9l1.13-1.57c2.57-3.55,5.23-7.22,7.45-11.08c2.91-5.06,3.19-10.55,0.81-15.89
			C134.15,75.51,129.67,72.27,123.76,71.95z M20.61,38.73L9.14,56.55l-3.87-2.5l11.46-17.8L20.61,38.73z M36.76,80.37
			c0-0.72,0.26-1.09,0.82-1.71c1.28-1.43,2.77-2.33,5.16-3.13c0.92-0.31,1.63-1.07,2.3-1.81c0.49-0.53,1-1.09,1.56-1.42
			c0.57-0.34,1.27-0.52,2.01-0.7c0.88-0.22,1.78-0.45,2.52-0.98c1.33-0.96,2.17-2.7,2.7-3.92l0.07-0.17
			c0.34-0.79,0.6-1.42,1.28-1.94c1.85-1.46,2.87-3.61,2.8-5.92c-0.08-2.5-1.39-4.81-3.6-6.33c-1.86-1.28-3.79-2.51-5.67-3.7
			c-0.92-0.58-1.84-1.17-2.76-1.76c-0.22-0.14-0.43-0.3-0.65-0.45c0.4-0.48,0.8-0.96,1.19-1.43c1.12-1.34,2.18-2.61,3.17-3.97
			c1.91-2.63,2.62-5.45,2.07-8.13c-0.56-2.72-2.37-5.06-5.23-6.77c-2.17-1.29-4.18-0.91-5.8,1.09c-1,1.23-2.03,2.44-3.06,3.64
			c-0.29,0.34-0.58,0.68-0.87,1.02l0-4.6c0-6.56,0-13.12,0-19.67c0-2.51,0.57-3.09,3.06-3.09c5.4,0,10.77,0,16.16,0.01
			C70.21,4.54,84.93,4.56,99.4,4.45c1.27-0.01,2.17,0.32,2.68,0.97c0.67,0.85,0.74,2.31,0.22,4.33l-0.12,0.44
			c-0.28,1.07-0.58,2.17-0.44,3.26c0.39,3.09,0.66,6.72-0.29,10.23c-1.12,4.17-3.62,6.67-7.43,7.43c-1.21,0.24-2.42,0.51-3.63,0.78
			c-0.7,0.15-1.4,0.31-2.1,0.46c-0.83,0.18-1.4,0.52-1.73,1.04c-0.33,0.52-0.41,1.2-0.23,2.02c0.81,3.71,1.61,7.43,2.41,11.14
			c0.94,4.37,1.89,8.74,2.84,13.1c0.41,1.86,1.33,2.43,3.29,2.01c1.86-0.39,3.72-0.8,5.65-1.22l1.9-0.42v16.25
			c-4.45-0.39-8.28,0.88-11.41,3.77c-5.46,5.05-6.42,13.97-2.23,20.75c2.63,4.26,6.42,6.91,11.1,9.93c0.18,0.11,0.36,0.22,0.54,0.32
			l0.27,0.16c2.13,1.28,2.24,1.82,1.78,3.41c-0.29,0.99-0.88,1.52-3.15,1.52l-51.11,0c-2.82,0-5.63,0-8.45-0.01
			c-2.38-0.01-2.99-0.63-2.99-3.03v-8.76C36.78,96.34,36.78,88.36,36.76,80.37z M42.76,31.85c0.55-0.58,1.11-1.16,1.67-1.74
			c1.56,0.8,2.62,2.02,2.98,3.47c0.37,1.47-0.03,3.08-1.12,4.52c-1.63,2.16-3.6,4.13-5.51,6.05l-0.57,0.57
			c-0.73,0.73-1.05,1.43-0.98,2.11c0.07,0.69,0.53,1.31,1.41,1.88c1.83,1.19,3.66,2.37,5.5,3.56c1.67,1.07,3.33,2.14,4.99,3.22
			c0.56,0.37,1.15,0.76,1.56,1.25c0.71,0.83,0.99,1.84,0.77,2.79c-0.21,0.92-0.86,1.65-1.81,2.06c-1.42,0.61-2.02,1.52-1.99,3.03
			c0.02,1.05-0.36,1.95-1.06,2.54c-0.68,0.57-1.6,0.79-2.58,0.6c-1.71-0.33-2.71,0.24-3.25,1.83c-0.62,1.8-1.83,2.5-3.79,2.18
			c-1.55-0.24-2.48,0.3-3.01,1.76c-0.41,1.13-1.12,1.92-2.01,2.22c-0.87,0.3-1.84,0.14-2.81-0.46c-0.69-0.43-1.39-0.86-2.09-1.28
			c-3.19-1.95-6.49-3.97-9.42-6.33c-1.96-1.58-3.65-3.57-5.3-5.49c-0.67-0.78-1.33-1.56-2.01-2.31l0.19-0.34
			c0.17-0.31,0.29-0.52,0.42-0.73l3.36-5.21c2.64-4.09,5.28-8.19,7.9-12.29c0.46-0.72,0.74-0.95,1.45-0.86
			c4.76,0.67,9.08-0.78,12.83-4.29C39.96,34.79,41.38,33.3,42.76,31.85z M106.39,15.15c-0.04-0.7-0.13-1.4-0.22-2.12
			c-0.03-0.2-0.05-0.41-0.08-0.61c1.96-0.52,3.65-0.36,4.92,0.46c1.23,0.79,2.01,2.2,2.26,4.07c0.32,2.43,0.32,4.96,0.32,7.4l0,1.42
			c0.01,0.91,0.3,1.63,0.85,2.08c0.37,0.3,1.03,0.61,2.11,0.38c2.7-0.56,5.39-1.15,8.08-1.73l4.57-0.98
			c1.7-0.36,3.06-0.12,3.82,0.68c0.76,0.81,0.93,2.19,0.46,3.88c-0.21,0.77,0.09,1.97,0.67,2.63c0.94,1.06,1.36,2.06,1.27,2.95
			c-0.09,0.83-0.64,1.61-1.62,2.32c-1.19,0.86-1.47,1.9-0.88,3.25c0.91,2.08,0.64,3.13-1.15,4.48c-1.18,0.9-1.44,1.94-0.8,3.27
			c0.53,1.1,0.59,2.17,0.18,3.03c-0.39,0.82-1.18,1.38-2.27,1.64c-0.75,0.18-1.5,0.36-2.26,0.54c-3.87,0.93-7.88,1.9-11.85,2.32
			c-2.35,0.25-4.84-0.1-7.24-0.43c-0.92-0.13-1.83-0.26-2.7-0.34c-0.12-0.05-0.4-0.41-0.45-0.66c-1.67-7.52-3.16-14.36-4.54-20.92
			c-0.06-0.29,0.1-0.83,0.25-0.94C106.33,28.51,106.8,21.75,106.39,15.15z M95.52,56.97l-4.47-20.69l4.49-1l4.49,20.69L95.52,56.97z
			 M92.44,85.19c1.58-2.37,4.04-3.96,6.94-4.48c0.51-0.09,1.01-0.14,1.52-0.14c1.83,0,3.61,0.61,5.4,1.84
			c0.77,0.53,1.73,1.19,2.29,2c0.73,1.06,1.7,1.59,2.65,1.45c1.01-0.14,1.84-0.98,2.28-2.29c1.32-3.93,3.83-6.29,7.44-7.01
			c4.47-0.89,8.56,0.94,10.92,4.9c2.32,3.89,2.56,8.07,0.73,12.42c-0.62,1.48-1.5,3.38-2.71,5.04c-3.03,4.15-6.09,8.19-9.33,12.46
			c-1.12,1.48-2.25,2.98-3.4,4.5c-1.87-1.15-3.72-2.29-5.57-3.41c-4.75-2.9-9.24-5.64-13.73-8.59c-3.75-2.46-6.09-5.68-6.95-9.56
			C90.18,91.01,90.72,87.77,92.44,85.19z"/>
	</g>
	<polygon class="st1" points="95.52,56.97 91.04,36.28 95.53,35.28 100.01,55.97 	"/>
	<polygon class="st1" points="20.61,38.73 9.14,56.55 5.28,54.05 16.73,36.25 	"/>
	<path class="st0" d="M63.51,112.54c1.43,0.01,2.87,0.01,4.31,0.01l1.83,0l1.87,0c0.62,0,1.25,0,1.87,0c0.88,0,1.76,0,2.64-0.01
		c1.39-0.02,2.32-0.83,2.37-2.08c0.03-0.63-0.17-1.19-0.56-1.61c-0.42-0.45-1.03-0.68-1.77-0.69c-4.06-0.03-8.19-0.04-12.64,0
		c-0.74,0-1.36,0.24-1.79,0.68c-0.39,0.4-0.59,0.95-0.58,1.57C61.08,111.73,62,112.53,63.51,112.54z"/>
	<path class="st0" d="M69.72,14.25c0.02,0,0.05,0,0.07,0c1.66-0.04,3.03-1.42,3.06-3.07c0.01-0.83-0.3-1.61-0.88-2.21
		c-0.59-0.6-1.38-0.94-2.24-0.94c-0.87,0.02-1.64,0.31-2.22,0.9c-0.58,0.58-0.9,1.38-0.89,2.23c0.01,0.85,0.34,1.64,0.94,2.22
		C68.15,13.94,68.91,14.25,69.72,14.25z"/>
</g>
</svg>
