<?xml version="1.0" encoding="utf-8"?>
<!-- Generator: Adobe Illustrator 27.2.0, SVG Export Plug-In . SVG Version: 6.00 Build 0)  -->
<svg version="1.1" id="Layer_1" xmlns="http://www.w3.org/2000/svg" xmlns:xlink="http://www.w3.org/1999/xlink" x="0px" y="0px"
	 viewBox="0 0 118.21 114.16" style="enable-background:new 0 0 118.21 114.16;" xml:space="preserve">
<style type="text/css">
	.st0{fill:#1E201F;}
	.st1{fill:#F0B600;}
</style>
<g>
	<path class="st0" d="M118.19,27.36c0-0.76-0.03-1.75-0.27-2.66c-1.14-4.34-3.21-6.87-6.5-7.94c-3.56-1.16-7.01-0.59-10.26,1.67
		c-2.42,1.69-4.83,3.39-7.24,5.1c-2.91,2.06-5.82,4.12-8.75,6.15c-1.29,0.9-1.84,1.96-1.83,3.55c0.04,8.66,0.08,18.74-0.01,28.65
		c-0.03,3.16-0.29,6.18-0.76,8.97c-1.11,6.55-4.86,10.31-11.46,11.48c-2.7,0.48-5.33,0.73-7.83,0.75
		c-10.9,0.07-21.99,0.06-32.71,0.04l-2.97,0c-1.74,0-3.52-0.09-5.28-0.25c-8.32-0.79-14.24-5.76-16.25-13.62
		c-0.58-2.26-0.88-4.68-0.9-7.19C5.09,51.51,5.09,40.27,5.15,25.6c0.01-2.35,0.19-4.81,0.53-7.32c0.99-7.2,4.56-11.02,11.59-12.39
		C19.81,5.4,22.58,5.16,26,5.13c11.73-0.07,23.45-0.05,36.45-0.02c2.48,0.01,4.63,0.13,6.56,0.37c4.47,0.55,10.68,2.12,13,9.33
		c0.34,1.05,1.36,1.3,1.93,1.36c0.91,0.09,1.74-0.23,2.26-0.89c0.55-0.69,0.67-1.63,0.35-2.58c-1.77-5.17-5.3-8.77-10.5-10.69
		c-3.67-1.36-7.72-1.97-13.15-1.98l-2.42,0C49.09,0,37.3-0.02,25.7,0.05C22.92,0.07,19.99,0.32,17,0.8
		c-9.15,1.46-14.23,6.34-16,15.37c-0.59,3.02-0.91,6.4-0.94,10.06C-0.02,35.3,0,44.52,0.02,53.44l0.01,6.8
		c0,1.75,0.07,3.54,0.21,5.33c0.96,12.94,9.9,21.75,22.77,22.44c3,0.16,6.07,0.17,9.04,0.18c1.37,0,2.74,0.01,4.11,0.03
		c0.28,0,0.57,0,0.92,0l1.66,0l-1.14,1.41c-0.24,0.29-0.42,0.52-0.61,0.75l-2.66,3.19c-4.47,5.35-8.93,10.7-13.41,16.04
		c-0.83,0.99-1.09,1.74-0.88,2.58c0.25,1.03,0.87,1.67,1.83,1.9c1.07,0.25,1.98-0.08,2.78-1.04c4.92-5.9,9.85-11.8,14.78-17.69
		l3.25-3.89c0.25-0.3,0.51-0.6,0.79-0.92l0.76-0.88l0.71,0.82c0.2,0.23,0.37,0.43,0.54,0.62l4.07,4.87
		c4.71,5.64,9.42,11.27,14.16,16.88c0.48,0.56,1.23,1.05,1.92,1.23c1.3,0.35,2.12-0.58,2.48-1.16c0.77-1.23,0.21-2.35-0.38-3.08
		c-2.63-3.17-5.28-6.33-7.92-9.5L49.76,88.34l1.6-0.09c0.42-0.03,0.74-0.04,1.08-0.04c0.99,0,1.98,0.01,2.96,0.02
		c2.23,0.03,4.54,0.05,6.79-0.06c3.66-0.18,6.96-0.37,10.22-0.97c8.24-1.52,13.24-6.37,14.86-14.41c0.43-2.15,0.63-4.4,0.82-6.57
		c0.09-1,0.18-2.01,0.29-3.01c0.03-0.28,0.05-0.56,0.08-0.89l0.11-1.44l0.71,0.5c1.12,0.79,2.22,1.57,3.31,2.34
		c2.66,1.89,5.17,3.67,7.77,5.39c1.69,1.11,3.38,1.92,5.01,2.41c4.89,1.46,8.82-0.19,11.35-4.79c0.99-1.8,1.49-3.78,1.49-5.88
		c-0.01-5.03-0.01-10.05-0.01-15.08C118.21,39.64,118.2,33.5,118.19,27.36z M113.04,59.62c-0.03,1.58-0.31,3.18-0.82,4.64
		c-0.61,1.76-1.88,2.72-3.5,2.72c-0.44,0-0.9-0.07-1.38-0.21c-1.55-0.45-3.03-1.13-4.27-1.97c-4.66-3.15-9.3-6.45-13.62-9.54
		c-0.56-0.4-1-1.25-1.01-1.93c-0.03-3.62-0.03-7.24-0.04-10.86c0-2.52,0-5.04-0.01-7.56c0-0.91,0.33-1.53,1.12-2.07
		c1.78-1.23,3.54-2.47,5.31-3.71c2.69-1.89,5.46-3.84,8.22-5.71c1.27-0.86,2.69-1.55,4.13-1.99c2.38-0.74,4.29,0.24,5.1,2.59
		c0.49,1.41,0.76,2.98,0.78,4.51c0.06,3.78,0.05,7.62,0.04,11.33c0,1.43-0.01,2.85-0.01,4.28c0,1.42,0,2.84,0.01,4.26
		C113.1,52.08,113.11,55.88,113.04,59.62z"/>
	<path class="st1" d="M56.3,21.48c-6.05,0-10.99,4.87-11.03,10.87c-0.04,6.11,4.87,11.11,10.93,11.15c0.02,0,0.05,0,0.07,0
		c2.91,0,5.66-1.14,7.74-3.21c2.11-2.09,3.27-4.86,3.27-7.8c0-6.04-4.91-10.98-10.94-11C56.33,21.48,56.31,21.48,56.3,21.48z
		 M62.19,32.49c0,1.6-0.62,3.09-1.73,4.2c-1.11,1.11-2.6,1.71-4.2,1.71c0,0-0.01,0-0.01,0c-3.32-0.01-5.91-2.62-5.91-5.95
		c0-1.61,0.61-3.1,1.72-4.2c1.11-1.1,2.59-1.71,4.19-1.71c0.01,0,0.01,0,0.02,0C59.6,26.56,62.2,29.17,62.19,32.49z"/>
</g>
</svg>
