<?xml version="1.0" encoding="utf-8"?>
<!-- Generator: Adobe Illustrator 27.2.0, SVG Export Plug-In . SVG Version: 6.00 Build 0)  -->
<svg version="1.1" id="Layer_1" xmlns="http://www.w3.org/2000/svg" xmlns:xlink="http://www.w3.org/1999/xlink" x="0px" y="0px"
	 viewBox="0 0 294.26 110.24" style="enable-background:new 0 0 294.26 110.24;" xml:space="preserve">
<style type="text/css">
	.st0{fill:#1E201F;}
	.st1{fill:#F0B600;}
</style>
<g>
	<g>
		<g>
			<g>
				<path class="st0" d="M107.86,48.78c-3.84,1.26-7.71,1.89-11.62,1.89c-8.21,0-14.41-2.19-18.58-6.58
					c-4.18-4.39-6.27-9.81-6.27-16.27c0-6.53,2.27-12.23,6.81-17.11C82.75,5.84,89.04,3.4,97.09,3.4c2.9,0,5.65,0.34,8.25,1.02
					l-0.88,5.83c-3.86-0.94-6.97-1.4-9.33-1.4c-5.66,0-10,1.71-13,5.14c-3.01,3.43-4.51,7.68-4.51,12.76c0,5.1,1.72,9.57,5.18,13.41
					c3.45,3.84,8.32,5.76,14.62,5.76c1.15,0,2.87-0.18,5.16-0.53c-0.4-2.43-0.6-5.26-0.6-8.49c0-2.71-0.16-5.37-0.49-7.97h6.39
					c-0.19,3.09-0.28,6.35-0.28,9.79C107.58,40.19,107.68,43.54,107.86,48.78z"/>
				<path class="st0" d="M149.21,32.04c0,5.99-1.72,10.66-5.16,14.02c-3.44,3.36-7.49,5.04-12.14,5.04c-4.35,0-8.09-1.49-11.21-4.46
					c-3.12-2.97-4.69-7.16-4.69-12.56c0-6.04,1.73-10.75,5.18-14.14c3.45-3.39,7.5-5.09,12.16-5.09c4.35,0,8.08,1.5,11.2,4.51
					S149.21,26.59,149.21,32.04z M143.14,33.27c0-3.65-0.92-6.9-2.75-9.74c-1.84-2.84-4.45-4.26-7.84-4.26
					c-3.37,0-5.96,1.35-7.77,4.04c-1.81,2.69-2.72,5.81-2.72,9.37c0,3.67,0.92,6.93,2.75,9.76c1.84,2.83,4.46,4.25,7.88,4.25
					c3.37,0,5.95-1.35,7.76-4.05C142.23,39.92,143.14,36.8,143.14,33.27z"/>
				<path class="st0" d="M183.67,49.73l-5.51,0.21c-0.28-1.15-0.42-2.23-0.42-3.26h-0.35c-2.88,2.62-6.8,3.93-11.76,3.93
					c-2.69,0-5.01-0.79-6.95-2.37c-1.94-1.58-2.91-3.83-2.91-6.76c0-3.6,1.52-6.5,4.56-8.69c3.04-2.19,8.69-3.34,16.95-3.46
					c0.07-0.56,0.11-1.21,0.11-1.93c0-2.88-0.77-4.8-2.3-5.76s-3.86-1.44-6.97-1.44c-3.67,0-7.29,0.46-10.84,1.37l0.6-4.84
					c3.51-1.01,7.55-1.51,12.11-1.51c4.16,0,7.38,0.86,9.65,2.58c2.27,1.72,3.4,4.65,3.4,8.79c0,1.1-0.05,3.1-0.16,5.98
					c-0.1,2.89-0.16,4.81-0.16,5.77C182.72,42.62,183.04,46.41,183.67,49.73z M177.46,42.92c-0.12-3.56-0.17-6.75-0.17-9.58
					c-4.4,0-7.75,0.33-10.04,0.98c-3.84,1.17-5.76,3.4-5.76,6.7c0,3.18,2.25,4.77,6.74,4.77C172.09,45.8,175.17,44.84,177.46,42.92z
					"/>
				<path class="st0" d="M199.36,49.73h-6.74c0.42-7.72,0.63-16.45,0.63-26.18c0-9.45-0.34-17.19-1.02-23.2L199.36,0
					c-0.44,6.36-0.67,14.21-0.67,23.55C198.69,33.17,198.91,41.89,199.36,49.73z"/>
				<path class="st0" d="M125.73,109.22h-10.21c0-3.98-0.25-10.69-0.74-20.13c-0.49-9.44-0.75-15.33-0.77-17.67h-0.53
					c-0.23,1.4-0.86,4-1.86,7.79s-2.89,9.38-5.67,16.76c-2.77,7.38-4.16,11.8-4.16,13.25h-7.76c0-1.5-1.33-5.96-3.98-13.37
					c-2.66-7.42-4.39-12.61-5.21-15.58c-0.82-2.97-1.47-5.92-1.97-8.84h-0.53c-0.02,2.92-0.31,9.2-0.86,18.81
					c-0.55,9.62-0.83,15.95-0.83,18.99H71.4c0-0.7,0.85-7.73,2.54-21.09c1.7-13.36,2.54-21.56,2.54-24.6h13.58
					c0,2.62,1.43,8.4,4.3,17.34s4.3,14.66,4.3,17.16h0.53c0-2.53,1.63-8.26,4.9-17.2s4.9-14.71,4.9-17.3h13.48
					c0,4.84,0.54,13.48,1.63,25.92C125.18,101.88,125.73,108.47,125.73,109.22z"/>
				<path class="st0" d="M162.47,109.19l-8.28,0.28c-0.38-0.98-0.56-1.87-0.56-2.67h-0.46c-2.57,2.2-6.05,3.3-10.42,3.3
					c-2.92,0-5.35-0.81-7.28-2.44c-1.93-1.62-2.9-3.78-2.9-6.47c0-3.56,1.5-6.47,4.51-8.74c3.01-2.27,8.28-3.47,15.81-3.61
					c0.05-0.42,0.07-0.82,0.07-1.19c0-2.53-0.61-4.2-1.82-5c-1.22-0.81-3.45-1.21-6.7-1.21c-3.53,0-6.98,0.47-10.35,1.4l0.77-6.46
					c3.18-1.1,7.67-1.65,13.48-1.65c4.23,0,7.5,0.89,9.81,2.67c2.3,1.78,3.46,4.89,3.46,9.33c0,0.98-0.04,2.77-0.12,5.37
					c-0.08,2.6-0.12,4.33-0.12,5.19C161.35,102.13,161.72,106.1,162.47,109.19z M153.1,101.88c-0.14-3.16-0.21-5.88-0.21-8.18
					c-7.98,0-11.97,2.03-11.97,6.07c0,2.79,1.75,4.18,5.26,4.18C148.95,103.96,151.25,103.27,153.1,101.88z"/>
				<path class="st0" d="M201.43,109.22h-10.74c0-0.87-1.78-3.8-5.33-8.79c-3.56-4.99-5.83-7.49-6.81-7.49h-0.46
					c0,4.8,0.14,10.22,0.42,16.29h-9.3c0.28-10.93,0.42-19.62,0.42-26.08c0-8.94-0.36-16.7-1.09-23.27l9.97-0.56
					c-0.33,8.89-0.49,16.84-0.49,23.83c0,0.89,0.01,2.62,0.04,5.19h0.49c0.65,0,2.51-1.89,5.58-5.67c3.06-3.78,4.6-6.04,4.6-6.79
					h10.46c0,0.72-1.59,2.75-4.77,6.07c-3.18,3.32-5.76,5.62-7.72,6.88v0.53c2.18,1.52,5.18,4.98,9,10.37
					C199.52,105.12,201.43,108.29,201.43,109.22z"/>
				<path class="st0" d="M236.39,88.97c0,1.19-0.07,2.75-0.21,4.67l-22.6,0.39c0.33,2.64,1.46,4.84,3.4,6.6
					c1.94,1.76,4.49,2.63,7.65,2.63c3.51,0,7.24-0.53,11.2-1.58l-0.7,6.81c-3.23,1.17-7.23,1.76-12,1.76
					c-6.04,0-10.66-1.7-13.88-5.09s-4.83-7.47-4.83-12.25c0-4.98,1.53-9.31,4.58-12.97c3.05-3.66,7.29-5.49,12.72-5.49
					c4.96,0,8.64,1.35,11.05,4.04C235.18,81.17,236.39,84.66,236.39,88.97z M228.17,88.65c0-5.38-2.29-8.07-6.88-8.07
					c-4.38,0-6.97,2.79-7.79,8.35L228.17,88.65z"/>
				<path class="st0" d="M265.87,75.88l-2.04,8.21c-1.73-0.7-3.49-1.05-5.26-1.05c-3.44,0-5.71,1.54-6.81,4.63
					c0,9.33,0.07,16.52,0.21,21.55h-9.33c0.4-7.04,0.6-12.8,0.6-17.27c0-5.57-0.58-10.85-1.75-15.83l8.95-0.98
					c0.4,2.57,0.6,4.08,0.6,4.53h0.56c2.15-3.3,5.02-4.95,8.6-4.95C261.87,74.72,263.76,75.11,265.87,75.88z"/>
				<path class="st0" d="M294.26,99.64c0,7.02-5.19,10.53-15.58,10.53c-3.79,0-7.1-0.41-9.93-1.23l1.19-6.91
					c2.92,1.05,5.84,1.58,8.74,1.58c2.81,0,4.76-0.23,5.84-0.7c1.09-0.47,1.63-1.25,1.63-2.35c0-1.71-1.97-3.33-5.9-4.88
					c-3.44-1.36-5.94-2.69-7.51-4c-2.15-1.82-3.23-4.06-3.23-6.7c0-3.11,1.16-5.62,3.47-7.51c2.32-1.9,5.69-2.84,10.11-2.84
					c4.14,0,7.39,0.36,9.76,1.09l-1.19,6.95c-2.64-1.03-5.5-1.54-8.56-1.54c-3.74,0-5.62,0.96-5.62,2.88c0,0.98,0.4,1.77,1.19,2.37
					c0.79,0.6,2.42,1.35,4.88,2.26c3.39,1.24,5.86,2.52,7.4,3.82C293.16,94.32,294.26,96.71,294.26,99.64z"/>
			</g>
			<g>
				<g>
					<circle class="st1" cx="58.25" cy="8.09" r="7.95"/>
				</g>
				<path class="st1" d="M28.47,7.22C12.75,7.22,0,19.97,0,35.69c0,15.72,12.75,28.47,28.47,28.47c15.72,0,28.47-12.75,28.47-28.47
					C56.94,19.97,44.19,7.22,28.47,7.22z M28.47,52.08c-9.05,0-16.39-7.34-16.39-16.39c0-9.05,7.34-16.39,16.39-16.39
					c9.05,0,16.39,7.34,16.39,16.39C44.86,44.74,37.52,52.08,28.47,52.08z"/>
				<path class="st1" d="M50.09,78.97L10.71,90.61c-3.58,1.06-7.38-1-8.44-4.59l0,0c-1.06-3.58,1-7.38,4.59-8.44l39.38-11.64
					c3.58-1.06,7.38,1,8.44,4.59l0,0C55.73,74.11,53.67,77.91,50.09,78.97z"/>
				<path class="st1" d="M50.09,98.67l-39.38,11.64c-3.58,1.06-7.38-1-8.44-4.59l0,0c-1.06-3.58,1-7.38,4.59-8.44l39.38-11.64
					c3.58-1.06,7.38,1,8.44,4.59l0,0C55.73,93.82,53.67,97.61,50.09,98.67z"/>
			</g>
		</g>
	</g>
</g>
</svg>
