<?xml version="1.0" encoding="utf-8"?>
<!-- Generator: Adobe Illustrator 27.2.0, SVG Export Plug-In . SVG Version: 6.00 Build 0)  -->
<svg version="1.1" id="Layer_1" xmlns="http://www.w3.org/2000/svg" xmlns:xlink="http://www.w3.org/1999/xlink" x="0px" y="0px"
	 viewBox="0 0 66.2 110.24" style="enable-background:new 0 0 66.2 110.24;" xml:space="preserve">
<style type="text/css">
	.st0{fill:#F0B600;}
</style>
<g>
	<g>
		<g>
			<g>
				<g>
					<circle class="st0" cx="58.25" cy="8.09" r="7.95"/>
				</g>
				<path class="st0" d="M28.47,7.22C12.75,7.22,0,19.97,0,35.69c0,15.72,12.75,28.47,28.47,28.47c15.72,0,28.47-12.75,28.47-28.47
					C56.94,19.97,44.19,7.22,28.47,7.22z M28.47,52.08c-9.05,0-16.39-7.34-16.39-16.39c0-9.05,7.34-16.39,16.39-16.39
					c9.05,0,16.39,7.34,16.39,16.39C44.86,44.74,37.52,52.08,28.47,52.08z"/>
				<path class="st0" d="M50.09,78.97L10.71,90.61c-3.58,1.06-7.38-1-8.44-4.59l0,0c-1.06-3.58,1-7.38,4.59-8.44l39.38-11.64
					c3.58-1.06,7.38,1,8.44,4.59l0,0C55.73,74.11,53.67,77.91,50.09,78.97z"/>
				<path class="st0" d="M50.09,98.67l-39.38,11.64c-3.58,1.06-7.38-1-8.44-4.59l0,0c-1.06-3.58,1-7.38,4.59-8.44l39.38-11.64
					c3.58-1.06,7.38,1,8.44,4.59l0,0C55.73,93.82,53.67,97.61,50.09,98.67z"/>
			</g>
		</g>
	</g>
</g>
</svg>
