<?xml version="1.0" encoding="utf-8"?>
<!-- Generator: Adobe Illustrator 27.2.0, SVG Export Plug-In . SVG Version: 6.00 Build 0)  -->
<svg version="1.1" id="Layer_1" xmlns="http://www.w3.org/2000/svg" xmlns:xlink="http://www.w3.org/1999/xlink" x="0px" y="0px"
	 viewBox="0 0 146.87 145.97" style="enable-background:new 0 0 146.87 145.97;" xml:space="preserve">
<style type="text/css">
	.st0{fill:#1E201F;}
	.st1{fill:#F0B600;}
</style>
<g>
	<path class="st0" d="M29.37,119.17c-3.98,1.04-7.76,1.76-11.62,1.02c-1.68-0.32-3.33-0.89-4.96-1.42c-1.33-0.43-1.81-1.37-1.8-2.82
		c0.06-7.76,0.03-15.51,0.03-23.27c0-0.61,0-1.21,0-1.89c-2.63-0.46-5.16-0.85-7.67-1.34C0.1,88.82-1,85.92,1.01,83.29
		c3.02-3.94,6.12-7.82,9.14-11.76c0.6-0.78,1.11-1.68,1.44-2.6c2.11-5.93,4.1-11.9,6.24-17.82c2.45-6.78,7.06-11.81,13.12-15.56
		c5.54-3.44,11.65-5.3,18.08-6.07c1.72-0.21,2.67-0.83,3.48-2.42C61.51,9.38,80.9-1.67,102.1,0.21
		c20.52,1.82,38.98,17.36,43.56,37.38c5.46,23.89-7.91,47.83-31.37,56.15c-7.26,2.57-14.73,3.53-22.4,2.67
		c-1.25-0.14-1.84,0.19-2.37,1.37c-3.45,7.63-8.1,14.48-13.73,20.68c-0.6,0.66-1.02,1.73-1.05,2.63c-0.26,7.42-0.4,14.84-0.6,22.26
		c-0.06,2.35-0.38,2.63-2.64,2.63c-13.17,0-26.34,0-39.51,0c-2.27,0-2.6-0.34-2.61-2.62c0-7.37,0-14.73,0-22.1
		C29.37,120.64,29.37,120.03,29.37,119.17z M49.89,32.44c-9.29,1.29-17.78,4.04-24.07,11.23c-2.08,2.38-3.82,5.27-4.98,8.22
		c-2.4,6.11-4.3,12.41-6.45,18.62c-0.28,0.82-0.72,1.63-1.25,2.32c-3,3.89-6.05,7.73-9.07,11.6c-0.35,0.44-0.61,0.96-1.05,1.68
		c3.16,0.56,5.99,1.17,8.84,1.53c1.8,0.23,2.29,1.08,2.28,2.77c-0.06,7.98,0,15.96-0.06,23.94c-0.01,1.29,0.39,1.88,1.63,2.22
		c4.65,1.3,9.17,0.7,13.64-0.8c2.46-0.82,3.1-0.37,3.1,2.27c0,7.59,0,15.18,0,22.77c0,0.6,0,1.19,0,1.83c12.93,0,25.67,0,38.47,0
		c0.03-0.45,0.06-0.77,0.07-1.1c0.2-7.08,0.43-14.17,0.56-21.25c0.03-1.43,0.42-2.5,1.42-3.55c5.47-5.74,9.84-12.24,13.26-19.39
		c0.23-0.48,0.4-0.98,0.57-1.41c-2.98-0.98-5.81-1.97-8.68-2.82c-0.79-0.24-1.75-0.29-2.54-0.08c-2.53,0.66-5.02,1.49-7.52,2.25
		c-4.26,1.3-8.51,2.64-12.8,3.84c-0.72,0.2-1.96,0.04-2.32-0.44c-0.35-0.47-0.04-1.62,0.27-2.35c0.38-0.91,1.06-1.7,1.61-2.54
		c2.4-3.68,4.79-7.36,7.15-10.99C48.24,68.31,44,51.68,49.89,32.44z M57.87,95.19c6.17-1.88,11.88-3.6,17.55-5.38
		c1.24-0.39,2.29-0.34,3.52,0.16c11.03,4.47,22.23,4.87,33.52,1.09c25.55-8.56,38.24-36.73,27.41-60.73
		C130.85,10.36,108.8-0.65,86.67,4.42C69.28,8.4,57.27,19.07,52.31,36.35c-4.89,17.02-0.22,31.92,12.25,44.38
		c1.23,1.23,1.37,2.17,0.41,3.59C62.62,87.78,60.39,91.31,57.87,95.19z"/>
	<path class="st1" d="M120.2,28.99c-7.17-6.17-17.6-6.45-24.99-0.65c-5.35,4.21-7.53,10.03-8.38,16.55
		c-0.73,5.6-0.24,11.4-2.71,16.78c1,0.74,1.93,1.42,2.95,2.17l7.38,5.45c0.97,0.71,1.85,1.37,2.47,1.82
		c2.72-1.47,5.06-2.87,7.51-4.02c3.33-1.56,6.8-2.8,10.1-4.41c4.25-2.07,7.67-5.11,9.99-9.33C128.97,45.25,127.17,34.99,120.2,28.99
		z"/>
	<path class="st0" d="M96.5,68.22c0.21,0.71,0.47,1.33,0.57,1.98c0.59,3.87-2.94,6.89-6.66,5.63c-0.86-0.29-1.37-0.2-2.09,0.31
		c-3.09,2.17-6.86,2.07-10.03,0c-3.44-2.24-5.85-5-5.35-9.44c0.01-0.11,0-0.23,0.04-0.33c0.62-1.58,0.27-2.86-0.57-4.4
		c-1.7-3.13,0.77-7.01,4.35-7.03c1.4-0.01,1.98-0.59,2.13-1.71c0.53-3.8,1.04-7.61,1.43-11.43c0.44-4.35,1.15-8.61,3.07-12.6
		c4.47-9.32,14.25-14.62,24.16-13.08c10.16,1.57,17.96,9.38,19.21,19.73c1.09,9.08-2.49,16.33-9.71,21.82
		c-3.82,2.9-8.25,4.59-12.68,6.3C101.57,65.05,98.74,66.11,96.5,68.22z M93.76,65.98c2.72-1.47,5.06-2.87,7.51-4.02
		c3.33-1.56,6.8-2.8,10.1-4.41c4.25-2.07,7.67-5.11,9.99-9.33c4.45-8.11,2.65-18.37-4.32-24.37c-7.17-6.17-17.6-6.45-24.99-0.65
		c-5.35,4.21-7.53,10.03-8.38,16.55c-0.73,5.6-0.24,11.4-2.71,16.78c1,0.74,1.93,1.42,2.95,2.17c3.23-4.4,6.39-8.7,9.6-13.07
		c-0.94-0.69-1.76-1.27-2.55-1.87c-3.05-2.32-3.69-6.23-1.53-9.18c2.13-2.9,6.16-3.54,9.07-1.44c2.93,2.12,3.52,6.09,1.34,9.21
		c-0.62,0.89-1.27,1.77-1.95,2.71c0.82,0.6,1.47,1.07,2.21,1.62c0.76-1.02,1.39-1.93,2.08-2.79c2.31-2.87,6.26-3.37,9.11-1.18
		c2.8,2.15,3.38,6.1,1.31,8.97c-2.08,2.9-6.03,3.55-9.07,1.48c-0.91-0.62-1.78-1.28-2.77-1.99c-3.19,4.37-6.3,8.63-9.48,12.99
		C92.26,64.87,93.15,65.53,93.76,65.98z M92.34,73.29c0.55-0.55,1.44-1.05,1.46-1.57c0.03-0.8-0.33-1.92-0.92-2.37
		c-4.72-3.63-9.55-7.13-14.33-10.67c-1.09-0.81-2.21-0.96-3.07,0.22c-0.88,1.2-0.33,2.19,0.75,2.98c4.76,3.49,9.51,6.98,14.28,10.45
		C90.97,72.68,91.55,72.89,92.34,73.29z M86.59,60.63c0.83,0.57,1.5,1.04,2.27,1.57c3.18-4.36,6.28-8.6,9.48-12.98
		c-0.84-0.57-1.54-1.05-2.31-1.58C92.84,52.02,89.77,56.24,86.59,60.63z M86.69,73.42c-3.49-2.56-6.83-5.01-10.22-7.5
		c-0.88,2.93-0.1,4.89,2.61,6.9C82.08,75.04,83.99,75.23,86.69,73.42z M95.38,43.16c0.74-1.01,1.45-1.86,2.03-2.79
		c1.02-1.61,0.62-3.53-0.86-4.57c-1.48-1.03-3.38-0.78-4.49,0.6c-1.17,1.46-0.94,3.51,0.57,4.75C93.45,41.82,94.34,42.4,95.38,43.16
		z M102.74,48.57c1.06,0.73,1.94,1.42,2.9,1.98c1.65,0.97,3.58,0.5,4.55-1.04c0.92-1.47,0.61-3.28-0.75-4.34
		c-1.43-1.12-3.43-0.93-4.64,0.53C104.1,46.55,103.5,47.5,102.74,48.57z"/>
</g>
</svg>
