<?xml version="1.0" encoding="utf-8"?>
<!-- Generator: Adobe Illustrator 27.2.0, SVG Export Plug-In . SVG Version: 6.00 Build 0)  -->
<svg version="1.1" id="Layer_1" xmlns="http://www.w3.org/2000/svg" xmlns:xlink="http://www.w3.org/1999/xlink" x="0px" y="0px"
	 viewBox="0 0 136.15 142.45" style="enable-background:new 0 0 136.15 142.45;" xml:space="preserve">
<style type="text/css">
	.st0{fill:#F0B600;}
	.st1{fill:#1E201F;}
</style>
<g>
	<path class="st0" d="M66.47,53.83c-0.39-1.28,0.56-2.66,1.4-3.16c2.02-1.21,3.89-2.24,5.71-3.16c1.03-0.52,2.34-0.33,3.11,0.07
		c1.91,0.98,3.78,2.02,5.57,3.1c0.88,0.53,1.88,1.95,1.5,3.24c-1.06,3.51-2.19,7.06-3.28,10.49l-1.22,3.85H71l-1.19-3.73
		C68.7,61.03,67.55,57.41,66.47,53.83z"/>
	<path class="st0" d="M97.24,135.26c-7.41,2.61-14.74,3.92-22.09,3.92c-7.23,0-14.49-1.27-21.86-3.8l-1.6-0.55l2.29-7.48
		c1.25-4.08,2.47-8.09,3.71-12.11l3.21-10.44c3.08-10.01,6.17-20.03,9.21-30.06c0.6-1.99,1.81-2.83,3.86-2.82l0.17,0
		c4.6,0.09,5.29,0.62,6.71,5.15c5.16,16.51,10.32,33.01,15.48,49.52l1.69,5.39c0.06,0.2,0.12,0.41,0.19,0.67l0.56,2.04L97.24,135.26
		z"/>
	<path class="st1" d="M126.85,40.07c-1.46-2.48-3.13-4.82-4.72-6.97c-0.28-0.38-0.64-0.61-1.05-0.67c-0.41-0.06-0.85,0.06-1.22,0.34
		c-0.77,0.57-0.87,1.46-0.28,2.39c0.22,0.34,0.46,0.66,0.7,0.98c0.15,0.2,0.3,0.4,0.44,0.6c7.16,9.99,11.15,20.94,11.88,32.54
		c1.42,22.64-6.83,41.47-24.5,55.97c-3.36,2.76-7.17,5.16-11.31,7.15l-1.76,0.84l-0.76-2.14c-0.07-0.18-0.12-0.33-0.16-0.47
		l-1.51-4.83C86.93,107.7,81.27,89.6,75.62,71.51c-0.17-0.55-0.43-1.37-0.16-2.24c1.12-3.62,2.27-7.24,3.44-10.9l1.49-4.7l2.27,1.13
		c0.31,0.15,0.58,0.28,0.84,0.43l6.48,3.59c2.99,1.66,5.99,3.32,8.98,4.97c1.03,0.57,1.89,0.78,2.36,0.58
		c0.46-0.2,0.88-0.95,1.16-2.07l0.62-2.46c3.76-15,7.66-30.52,11.4-45.8c0.17-0.69,0.06-1.7-0.26-2.52
		c-0.74-1.86-1.59-3.73-2.41-5.54c-0.65-1.43-1.3-2.86-1.91-4.31c-0.52-1.24-1.2-1.66-2.63-1.66c-3.35,0.04-6.75,0.03-10.04,0.02
		l-4.08-0.01l-14.8,0c-16.1,0-32.75,0.01-49.13-0.04c-1.87-0.01-2.63,0.51-3.27,2.12c-0.64,1.62-1.38,3.22-2.08,4.77
		c-0.7,1.53-1.43,3.12-2.05,4.69c-0.32,0.81-0.42,1.83-0.24,2.55c3.61,14.72,7.37,29.67,10.99,44.12l1.08,4.29
		c0.25,0.98,0.64,1.62,1.1,1.83c0.48,0.21,1.24,0.05,2.14-0.45c3.17-1.75,6.34-3.5,9.51-5.26l6.1-3.38c0.32-0.17,0.64-0.33,1-0.5
		l2.33-1.14l0.62,1.93c0.36,1.15,0.73,2.28,1.09,3.4c1.01,3.14,1.96,6.1,2.85,9.15c0.38,1.31,0.38,2.86-0.01,4.14
		c-2.95,9.77-6.01,19.69-8.96,29.28l-9.83,31.91l-2.41-1.15c-0.39-0.18-0.72-0.34-1.04-0.5C8.08,116.4-5.03,78.92,8.94,48.24
		c1.58-3.46,3.64-6.7,5.63-9.83c0.61-0.96,1.22-1.92,1.82-2.88c0.5-0.8,0.65-1.64,0.41-2.23c-0.16-0.4-0.5-0.67-1.01-0.8
		c-0.17-0.04-0.33-0.08-0.5-0.08c-0.48,0-0.99,0.26-1.74,1.3C1.87,49.66-2.28,67.5,1.18,86.73c3.49,19.39,15.27,36.25,32.31,46.28
		c17.17,10.11,37.85,12.21,56.72,5.78c19.3-6.58,34.48-21.44,41.64-40.75C139,78.74,137.18,57.61,126.85,40.07z M107.82,4.57
		l0.97,2.85c0.22,0.65,0.52,1.26,0.83,1.91c0.86,1.8,1.84,3.84,1.11,6.64c-2.61,9.96-5.15,20.13-7.6,29.96
		c-0.92,3.69-1.84,7.39-2.77,11.08c-0.06,0.23-0.13,0.45-0.23,0.74l-0.79,2.45L72.07,45.05L107.82,4.57z M68.05,44.58L43.99,17.31
		h48.12L68.05,44.58z M104.33,3.48l-4.01,4.54c-1.53,1.73-2.97,3.37-4.46,4.97c-0.77,0.83-1.95,0.84-2.58,0.84
		c-7.59,0.01-15.19,0.01-22.78,0.01c-9.21,0-18.42-0.01-27.64-0.02c-0.55,0-1.94-0.1-2.81-1.03c-1.42-1.51-2.77-3.06-4.21-4.69
		l-4.07-4.61H104.33z M36.56,60.3l-1.71-6.8c-0.93-3.68-1.83-7.29-2.74-10.9l-1.86-7.43c-1.59-6.36-3.23-12.95-4.89-19.4
		c-0.36-1.41-0.63-3.29,0.56-5.33c0.33-0.57,0.6-1.22,0.92-1.97c0.16-0.39,0.33-0.79,0.52-1.21l1.11-2.48l35.56,40.29L36.56,60.3z
		 M59.47,53.83c-0.39-1.28,0.56-2.66,1.4-3.16c2.02-1.21,3.89-2.24,5.71-3.16c1.03-0.52,2.34-0.33,3.11,0.07
		c1.91,0.98,3.78,2.02,5.57,3.1c0.88,0.53,1.88,1.95,1.5,3.24c-1.06,3.51-2.19,7.06-3.28,10.49l-1.22,3.85H64l-1.19-3.73
		C61.7,61.03,60.55,57.41,59.47,53.83z M90.24,135.26c-7.41,2.61-14.74,3.92-22.09,3.92c-7.23,0-14.49-1.27-21.86-3.8l-1.6-0.55
		l2.29-7.48c1.25-4.08,2.47-8.09,3.71-12.11l3.21-10.44c3.08-10.01,6.17-20.03,9.21-30.06c0.6-1.99,1.81-2.83,3.86-2.82l0.17,0
		c4.6,0.09,5.29,0.62,6.71,5.15c5.16,16.51,10.32,33.01,15.48,49.52l1.69,5.39c0.06,0.2,0.12,0.41,0.19,0.67l0.56,2.04L90.24,135.26
		z"/>
</g>
</svg>
