<?xml version="1.0" encoding="utf-8"?>
<!-- Generator: Adobe Illustrator 27.2.0, SVG Export Plug-In . SVG Version: 6.00 Build 0)  -->
<svg version="1.1" id="Layer_1" xmlns="http://www.w3.org/2000/svg" xmlns:xlink="http://www.w3.org/1999/xlink" x="0px" y="0px"
	 viewBox="0 0 114.64 146.72" style="enable-background:new 0 0 114.64 146.72;" xml:space="preserve">
<style type="text/css">
	.st0{fill:#1E201F;}
	.st1{fill:#F0B600;}
</style>
<g>
	<g>
		<path class="st0" d="M112.27,13.49c-9.68-2.4-19.37-4.81-29.05-7.22C75.1,4.25,66.98,2.22,58.86,0.21
			c-0.98-0.24-1.94-0.27-2.68-0.09c-9,2.23-18.01,4.48-27.01,6.73c-9,2.25-18,4.5-27,6.73c-1.55,0.39-2.17,1.15-2.15,2.64
			c0.03,2.46,0.04,17.38,0.03,44.27c-0.06,0.29-0.04,0.59-0.03,0.89c0.01,0.12,0.02,0.24,0.02,0.35l0,2.22l0,6.41
			c0,5.83,0,11.67-0.01,17.5C0.01,98.47,4.3,107.1,12.77,113.5c13.32,10.07,27.25,20.66,42.57,32.37c0.74,0.56,1.38,0.84,2.01,0.84
			c0.62,0,1.23-0.27,1.93-0.8c8.58-6.56,17.18-13.1,25.78-19.64c5.76-4.38,11.52-8.76,17.28-13.15
			c8.11-6.19,12.24-14.51,12.26-24.74c0.03-12.7,0.03-25.4,0.03-38.1c0-11.27,0-22.55,0.02-33.82
			C114.64,14.75,113.98,13.91,112.27,13.49z M111.42,89.07c-0.03,8.45-3.5,15.54-10.34,21.08c-1.47,1.19-3.01,2.34-4.5,3.46
			c-0.62,0.46-1.24,0.93-1.85,1.39l-37.39,28.41l-0.17-0.12c-0.26-0.19-0.49-0.35-0.71-0.52l-11.64-8.84
			c-10.19-7.74-20.38-15.48-30.55-23.23C6.9,105.09,3.17,97.52,3.19,88.24C3.2,81.95,3.2,75.66,3.2,69.37l0-5.02
			c0-0.13,0-0.26,0-0.38v-2.3l0.02-0.26c0.02-0.31,0.04-0.62-0.02-0.83l0-5.46c0.01-12.86,0.04-34.38-0.05-36.97
			c-0.04-1.29,0.25-1.69,1.48-1.99c10.6-2.61,21.19-5.25,31.78-7.9C43.04,6.6,49.67,4.95,56.3,3.3c0.33-0.08,0.68-0.12,1.04-0.12
			c0.33,0,0.66,0.04,0.95,0.11c7.78,1.93,15.55,3.87,23.33,5.81c9.6,2.4,19.21,4.79,28.81,7.17c0.84,0.21,1.04,0.46,1.04,1.36
			c-0.01,9.36-0.01,18.73-0.01,28.09C111.46,59.93,111.46,74.62,111.42,89.07z"/>
		<path class="st0" d="M102.9,23.4c-7.62-1.88-15.25-3.78-22.87-5.67c-7.07-1.76-14.15-3.52-21.22-5.27
			c-0.92-0.23-1.95-0.23-2.82-0.02c-6.75,1.66-13.49,3.34-20.23,5.02c-8,1.99-16,3.98-24,5.95c-1.88,0.46-2.26,1.51-2.26,3.04
			c0.03,13.29,0.03,26.58,0.03,39.87c0,6.46,0,12.92,0,19.38c0,8.67,3.51,15.73,10.41,20.98l9.46,7.19
			c8.7,6.61,17.4,13.22,26.07,19.86c0.67,0.51,1.26,0.77,1.85,0.77c0.58,0,1.16-0.25,1.81-0.75c11.78-9.02,23.79-18.14,35.41-26.95
			c7.03-5.34,10.58-12.54,10.56-21.4c-0.02-6.61-0.01-13.22-0.01-19.83l0-8.68l0-7.51c0-7.56-0.01-15.38,0.03-23.07
			C105.15,24.62,104.52,23.8,102.9,23.4z M102.01,50.37l0,7.02l0,8.39c0,6.49-0.01,12.98,0.01,19.47
			c0.03,8.07-3.05,14.33-9.42,19.14c-10.75,8.13-22,16.69-34.4,26.16c-0.7,0.54-1.03,0.54-1.73,0
			c-7.04-5.38-14.08-10.73-21.13-16.09c-4.55-3.46-9.09-6.91-13.64-10.37c-5.97-4.55-9.01-10.61-9.03-18.03
			c-0.03-11.05-0.03-22.09-0.03-33.14c0-8.44,0-16.87-0.01-25.31c0-0.95,0.22-1.23,1.13-1.46c7.29-1.81,14.58-3.63,21.87-5.45
			c6.92-1.73,13.85-3.46,20.78-5.18c0.28-0.07,0.58-0.1,0.91-0.1c0.4,0,0.83,0.05,1.25,0.16c6.59,1.63,13.18,3.28,19.77,4.92
			c7.47,1.86,14.95,3.73,22.42,5.58c1.04,0.26,1.3,0.6,1.3,1.67C102,35.29,102,42.96,102.01,50.37z"/>
		<path class="st1" d="M59.6,90.37c-4.37-0.03-7.1-2.79-7.13-7.19c-0.04-6.98-0.04-13.88,0-20.5c0.03-4.34,2.65-6.99,7.02-7.08
			c1.45-0.03,2.24-0.64,2.71-2.1c1.48-4.59,3.04-9.24,4.54-13.74l1.24-3.71c0.15-0.44,0.31-0.87,0.48-1.33l0.13-0.34
			c2.96,0.85,4.4,2.7,4.42,5.66c0.01,2.76,0.01,5.52,0.01,8.28l0,4.54c0,2.3,0.4,2.7,2.64,2.71c1.56,0,3.12,0,4.68,0
			c2.23,0,4.46-0.01,6.69,0.01c2.6,0.02,4.73,0.93,6.01,2.58c1.28,1.64,1.64,3.93,1.01,6.45c-1.67,6.73-3.36,13.45-5.05,20.17
			c-0.92,3.64-3.33,5.58-6.99,5.6C74.29,90.42,66.75,90.42,59.6,90.37z"/>
		<path class="st0" d="M83.54,52.9c-1.33-0.39-2.78-0.46-3.89-0.48c-2.54-0.04-5.05-0.03-7.7-0.03c-0.92,0-1.86,0.01-2.8,0.01v-0.42
			c0-0.51,0-0.96,0-1.42c-0.01-1.18-0.01-2.37,0-3.55c0.01-2.73,0.02-5.54-0.15-8.31c-0.22-3.66-3.26-6.88-7.06-7.49
			c-1.82-0.3-2.8,0.3-3.35,2.05c-1.12,3.54-2.32,7.13-3.48,10.59c-0.83,2.49-1.67,4.97-2.48,7.47c-0.27,0.82-0.56,1.06-1.41,1.17
			c-5.38,0.68-8.87,4.63-8.9,10.07c-0.04,7.64-0.04,14.45,0,20.83c0.03,5.82,4.29,10.06,10.11,10.08c3.58,0.01,7.25,0.02,11.07,0.02
			c3.73,0,7.61-0.01,11.68-0.02c4.8-0.02,8.51-2.84,9.69-7.37c2-7.69,3.77-14.8,5.41-21.73C91.46,59.38,88.5,54.34,83.54,52.9z
			 M52.6,90.37c-4.37-0.03-7.1-2.79-7.13-7.19c-0.04-6.98-0.04-13.88,0-20.5c0.03-4.34,2.65-6.99,7.02-7.08
			c1.45-0.03,2.24-0.64,2.71-2.1c1.48-4.59,3.04-9.24,4.54-13.74l1.24-3.71c0.15-0.44,0.31-0.87,0.48-1.33l0.13-0.34
			c2.96,0.85,4.4,2.7,4.42,5.66c0.01,2.76,0.01,5.52,0.01,8.28l0,4.54c0,2.3,0.4,2.7,2.64,2.71c1.56,0,3.12,0,4.68,0
			c2.23,0,4.46-0.01,6.69,0.01c2.6,0.02,4.73,0.93,6.01,2.58c1.28,1.64,1.64,3.93,1.01,6.45c-1.67,6.73-3.36,13.45-5.05,20.17
			c-0.92,3.64-3.33,5.58-6.99,5.6C67.29,90.42,59.75,90.42,52.6,90.37z"/>
		<path class="st0" d="M37.71,57.15c-1.13-1.12-2.66-1.73-4.29-1.73c-0.03,0-0.06,0-0.09,0c-3.63,0.05-6.18,2.86-6.2,6.84
			c-0.01,3.03-0.01,4.72-0.01,6.87l0,3.73l0,3.33c0,2.41,0,4.16,0.01,7.44c0,0.71,0.04,1.62,0.3,2.47c0.81,2.63,3.27,4.4,5.94,4.4
			c0.31,0,0.63-0.02,0.95-0.08c3.21-0.51,5.38-3.17,5.39-6.61c0.03-9.18,0.02-12.35,0-21.53C39.72,60.24,39.01,58.42,37.71,57.15z
			 M36.56,76.72c0,2.13,0,3.82-0.01,6.84c0,1.29-0.37,2.33-1.05,3c-0.55,0.53-1.3,0.79-2.16,0.78c-1.93-0.05-3.13-1.49-3.13-3.76
			c-0.01-9.13-0.01-12.26,0-21.38c0-1.92,0.95-3.25,2.53-3.54c0.23-0.04,0.46-0.06,0.69-0.06c1.29,0,2.38,0.69,2.82,1.85
			c0.25,0.66,0.29,1.44,0.29,2.06c0.02,3.25,0.02,4.92,0.02,7.3l0,3.15L36.56,76.72z"/>
	</g>
</g>
</svg>
