<?xml version="1.0" encoding="utf-8"?>
<!-- Generator: Adobe Illustrator 27.2.0, SVG Export Plug-In . SVG Version: 6.00 Build 0)  -->
<svg version="1.1" id="Layer_1" xmlns="http://www.w3.org/2000/svg" xmlns:xlink="http://www.w3.org/1999/xlink" x="0px" y="0px"
	 viewBox="0 0 88.69 117.27" style="enable-background:new 0 0 88.69 117.27;" xml:space="preserve">
<style type="text/css">
	.st0{fill:#F0B600;}
	.st1{fill:#1E201F;}
</style>
<g>
	<path class="st0" d="M51.32,46.08c-0.01,0-0.02,0-0.04,0c-2.75,0.01-5.34,1.09-7.28,3.05c-1.92,1.94-2.96,4.5-2.95,7.21
		C41.1,62,45.69,66.57,51.31,66.57c0.02,0,0.03,0,0.05,0c2.71-0.01,5.28-1.1,7.23-3.06c1.95-1.96,3.01-4.54,2.99-7.25
		C61.55,50.64,56.95,46.08,51.32,46.08z"/>
	<path class="st1" d="M87.29,97.68c-1.81-15.75-8.85-28.76-20.91-38.67c-0.97-0.79-1.39-1.69-1.42-2.99
		c-0.03-1.51-0.04-3.02-0.06-4.53c-0.03-4.03-0.06-8.19-0.51-12.23c-1.62-14.6-7.89-27.55-18.65-38.49C45.24,0.26,44.76,0,44.32,0
		c0,0,0,0,0,0c-0.44,0-0.92,0.26-1.42,0.76C33.38,10.43,27.28,22,24.79,35.18c-1.21,6.37-1.16,12.94-1.11,19.3l0.01,1.2
		c0.01,1.56-0.47,2.59-1.66,3.55C14.26,65.53,8.44,73.6,4.74,83.22c-2.49,6.45-3.3,13.37-4.09,20.06c-0.21,1.75-0.41,3.49-0.65,5.23
		c-0.04,0.29,0.53,1.22,1.13,1.58c0.68,0.4,1.37-0.03,1.75-0.64c0.65-1.05,1.28-2.15,1.88-3.22l0.52-0.92
		c2.61-4.56,6.29-7.85,10.92-9.78c1.42-0.59,2.87-0.98,4.28-1.37c0.59-0.16,1.18-0.32,1.73-0.49l0.71-0.21l0.22,0.7
		c0.17,0.55,0.29,1.07,0.41,1.58c0.21,0.91,0.39,1.7,0.77,2.06c0.41,0.37,1.26,0.49,2.08,0.6c0.45,0.06,0.9,0.12,1.32,0.22l0.42,0.1
		l0.13,0.41c0.02,0.03,0.1,0.22,0.1,0.45c0.01,1.31,0.01,2.63,0.02,3.94l0.01,1.69c0.01,2.21,0.42,2.62,2.56,2.63l2.24,0l9.57,0
		v9.43h3.17v-9.43l4.23,0c2.53,0,5,0,7.46,0c2.17,0,2.58-0.42,2.59-2.6c0-1.38,0-2.76,0-4.12l0-2.52l0.64-0.09
		c1.96-0.28,3.03-0.43,3.47-0.86c0.43-0.41,0.56-1.42,0.81-3.25l0.1-0.75l0.75,0.11c7.33,1.08,12.99,4.67,16.81,10.69
		c0.92,1.44,1.75,2.94,2.59,4.48c0.78,1.43,1.61,1.36,2.25,1.14c0.64-0.22,1.19-0.64,0.97-2.19
		C88.15,104.42,87.68,101.04,87.29,97.68z M23.57,90.31l-0.66,0.08c-6.59,0.8-12.21,3.55-16.71,8.17l-1.04,1.07l-0.24-1.47
		c-1.39-8.54,7.89-27.09,17.42-34.83l1.22-0.99V90.31z M32,22.6c2.8-6.63,6.66-12.54,11.77-18.05l0.55-0.59l0.55,0.59
		c5.05,5.45,8.9,11.36,11.77,18.05l0.45,1.05H31.56L32,22.6z M56.83,104.5H31.81v-6.04h25.02V104.5z M61.73,93
		c0,0.26-0.02,0.52-0.04,0.84l-0.07,1.19h-34.6l-0.06-1.3c-0.02-0.41-0.04-0.8-0.04-1.2c0-14.92-0.01-29.85,0-44.77
		c0-6.4,0.91-12.7,2.69-18.72c0.32-1.08,0.86-2.07,2.64-2.07c0.01,0,0.03,0,0.04,0c7.72,0.06,15.82,0.06,24.06,0
		c0.01,0,0.03,0,0.04,0c1.46,0,2.23,0.6,2.66,2.05c1.76,5.96,2.66,11.99,2.68,17.91c0.03,11.47,0.02,22.94,0.02,34.41L61.73,93z
		 M82.66,98.75c-4.82-4.88-10.35-7.6-16.91-8.31l-0.67-0.07V62.34l1.23,1.04c9.81,8.26,16.73,21.92,17.62,34.8l0.14,2.02
		L82.66,98.75z"/>
	<path class="st1" d="M44.29,42.82c-0.03,0-0.07,0-0.1,0c-7.39,0.05-13.38,6.12-13.34,13.53c0.04,7.4,6.07,13.44,13.45,13.46
		c0.01,0,0.03,0,0.04,0c3.57,0,6.94-1.4,9.48-3.95c2.57-2.57,3.98-5.99,3.97-9.63c-0.01-3.63-1.42-7.01-3.97-9.53
		C51.28,44.2,47.9,42.82,44.29,42.82z M51.59,63.51c-1.94,1.96-4.51,3.05-7.23,3.06c-0.02,0-0.03,0-0.05,0
		c-5.62,0-10.21-4.58-10.25-10.23c-0.02-2.71,1.03-5.27,2.95-7.21c1.94-1.96,4.52-3.04,7.28-3.05c0.01,0,0.03,0,0.04,0
		c5.63,0,10.23,4.56,10.26,10.18C54.6,58.97,53.53,61.55,51.59,63.51z"/>
</g>
</svg>
