<?xml version="1.0" encoding="utf-8"?>
<!-- Generator: Adobe Illustrator 27.2.0, SVG Export Plug-In . SVG Version: 6.00 Build 0)  -->
<svg version="1.1" id="Layer_1" xmlns="http://www.w3.org/2000/svg" xmlns:xlink="http://www.w3.org/1999/xlink" x="0px" y="0px"
	 viewBox="0 0 114.85 108.28" style="enable-background:new 0 0 114.85 108.28;" xml:space="preserve">
<style type="text/css">
	.st0{fill:#F0B600;}
	.st1{fill:#1E201F;}
</style>
<path class="st0" d="M59.35,4.12c0,5.11,0,10.19,0,15.32c6.23,0,12.42,0,18.81,0c-0.96-1.79-1.74-3.47-2.73-5.01
	c-1.16-1.81-1.24-3.42-0.01-5.25c1.03-1.54,1.79-3.27,2.74-5.06C71.74,4.12,65.61,4.12,59.35,4.12z"/>
<path class="st1" d="M83.37,56.98c-3.01,4.06-5.91,7.97-8.87,11.96c1.51,2.13,3,4.24,4.48,6.34c6.85,9.68,13.69,19.35,20.54,29.03
	c0.59,0.84,1.3,1.64,0.65,2.78c-0.63,1.11-1.67,1.19-2.79,1.19c-31.48-0.01-62.96-0.01-94.43,0c-1.06,0-2.07-0.04-2.68-1.11
	c-0.62-1.09-0.07-1.94,0.55-2.8c13.17-18.59,26.33-37.18,39.5-55.76c2.26-3.18,4.47-6.4,6.78-9.54c0.77-1.04,1.05-2.09,1.05-3.37
	c-0.06-10.88-0.05-21.77-0.07-32.65c0-2.45,0.67-3.05,3.15-3.04c7.42,0.02,14.84,0.01,22.25,0.01c2.99,0,3.81,1.35,2.41,3.96
	c-1.13,2.1-2.21,4.24-3.42,6.29c-0.64,1.08-0.74,1.93-0.05,3.06c1.32,2.16,2.46,4.43,3.64,6.67c1.17,2.21,0.32,3.6-2.2,3.61
	c-6.59,0.01-13.18,0.01-19.76,0.01c-0.58,0-1.15,0-1.91,0c0,2.41,0.22,4.72-0.05,6.96c-0.58,4.85,1,8.74,3.97,12.58
	c5.13,6.63,9.77,13.64,14.61,20.49c0.39,0.55,0.79,1.09,1.29,1.79c0.4-0.52,0.72-0.93,1.03-1.34c2.76-3.72,5.51-7.45,8.29-11.16
	c1.35-1.8,2.62-1.85,3.99-0.09c8.55,11.02,17.08,22.07,25.61,33.11c1.07,1.39,2.17,2.76,3.22,4.17c0.94,1.27,0.91,2.36-0.02,3.12
	c-0.97,0.8-2.18,0.61-3.14-0.62c-5.18-6.66-10.33-13.35-15.49-20.03c-3.76-4.86-7.52-9.72-11.29-14.58
	C83.99,57.7,83.73,57.41,83.37,56.98z M94.43,104.16C79.61,83.23,64.97,62.54,50.18,41.65C35.42,62.51,20.74,83.25,5.93,104.16
	C35.56,104.16,64.83,104.16,94.43,104.16z M52.35,4.12c0,5.11,0,10.19,0,15.32c6.23,0,12.42,0,18.81,0
	c-0.96-1.79-1.74-3.47-2.73-5.01c-1.16-1.81-1.24-3.42-0.01-5.25c1.03-1.54,1.79-3.27,2.74-5.06C64.74,4.12,58.61,4.12,52.35,4.12z"
	/>
</svg>
