<?xml version="1.0" encoding="utf-8"?>
<!-- Generator: Adobe Illustrator 27.2.0, SVG Export Plug-In . SVG Version: 6.00 Build 0)  -->
<svg version="1.1" id="Layer_1" xmlns="http://www.w3.org/2000/svg" xmlns:xlink="http://www.w3.org/1999/xlink" x="0px" y="0px"
	 viewBox="0 0 134.15 64.68" style="enable-background:new 0 0 134.15 64.68;" xml:space="preserve">
<style type="text/css">
	.st0{fill:#F0B600;}
	.st1{fill:#1E201F;}
</style>
<g>
	<path class="st0" d="M75.06,4.07c-0.02,0-0.04,0-0.06,0c-7.56,0.01-14.65,2.96-19.96,8.3c-5.31,5.34-8.23,12.45-8.21,20.02
		c0.02,7.56,2.97,14.65,8.31,19.96c5.33,5.3,12.41,8.22,19.95,8.22c0.02,0,0.04,0,0.07,0c15.57-0.04,28.21-12.75,28.18-28.33
		C103.3,16.7,90.62,4.07,75.06,4.07z"/>
	<path class="st1" d="M109.69,9.54C99.1,4.19,87.14,1.06,74.16,0.24C71.6,0.08,69.08,0,66.61,0C51.17,0,37.35,3.14,24.53,9.52
		C13.87,14.83,6.04,21.69,0.61,30.48c-0.82,1.33-0.82,2.33,0.01,3.68c5.08,8.24,12.31,14.78,22.1,20.02
		c13.12,7.01,27.56,10.35,45.43,10.5c0.49-0.02,1.06-0.05,1.7-0.08c1.65-0.07,3.7-0.15,5.75-0.31c12.81-1,24.06-4.06,34.39-9.34
		c10.51-5.37,18.2-12.16,23.52-20.74c0.86-1.38,0.85-2.41-0.02-3.81C128.12,21.74,120.33,14.91,109.69,9.54z M43.71,57.56
		c-6.58-1.45-12.91-3.79-18.82-6.94c-8.33-4.45-14.66-9.8-19.35-16.34c-0.99-1.38-0.98-2.52,0.04-3.94
		c5.16-7.23,12.18-12.96,20.86-17.02c3.66-1.71,7.53-3.06,11.28-4.37c1.64-0.57,3.27-1.14,4.9-1.74c0.29-0.11,0.55-0.14,0.89-0.18
		c0.17-0.02,0.37-0.05,0.62-0.09l3.04-0.5l-2.16,2.19c-6.86,6.95-10.21,14.69-10.21,23.66c-0.01,8.94,3.22,16.67,9.88,23.62
		l2.28,2.38L43.71,57.56z M67.16,60.57c-0.02,0-0.04,0-0.07,0c-7.54,0-14.62-2.92-19.95-8.22c-5.34-5.32-8.29-12.41-8.31-19.96
		c-0.02-7.57,2.9-14.68,8.21-20.02c5.31-5.34,12.4-8.29,19.96-8.3c0.02,0,0.04,0,0.06,0c15.56,0,28.24,12.62,28.27,28.17
		C95.37,47.83,82.73,60.54,67.16,60.57z M128.72,34.11c-4.84,6.88-11.57,12.47-20.58,17.1c-4.97,2.56-10.4,4.6-16.6,6.26
		c-0.31,0.08-0.59,0.1-0.9,0.13c-0.12,0.01-0.26,0.02-0.41,0.04l-2.9,0.33l2.09-2.04c6.46-6.3,9.99-14.68,9.95-23.59
		c-0.04-8.95-3.69-17.55-10.02-23.59l-1.8-1.72h2.49c0.12,0,0.22-0.01,0.31-0.01c0.24-0.01,0.49-0.03,0.77,0.05
		c13.24,3.53,23.11,8.64,31.05,16.07c1.57,1.47,2.95,3.15,4.29,4.77c0.72,0.88,1.45,1.75,2.2,2.6
		C129.96,31.94,129.37,33.18,128.72,34.11z"/>
	<path class="st1" d="M77.77,23.13c-0.31,0.27-0.59,0.56-0.88,0.85l-0.33,0.33L63.6,37.28l-2.61-2.65
		c-1.46-1.48-2.86-2.91-4.29-4.32c-0.59-0.58-1.21-0.88-1.8-0.88c-0.48,0-0.93,0.19-1.33,0.59c-0.39,0.38-0.59,0.84-0.6,1.34
		c0,0.6,0.29,1.23,0.83,1.78c2.76,2.8,5.5,5.54,8.13,8.13c1.23,1.21,2.17,1.22,3.35,0.06c3.67-3.63,7.31-7.29,10.96-10.94l4.19-4.2
		c0.06-0.06,0.11-0.12,0.17-0.18c0.81-0.96,0.82-2.17,0.01-2.94C79.78,22.28,78.72,22.31,77.77,23.13z"/>
</g>
</svg>
